<?xml version="1.0" encoding="UTF-8" standalone="no"?>
<!-- Created with Inkscape (http://www.inkscape.org/) -->

<svg
   version="1.1"
   id="svg877"
   width="4694.6665"
   height="1124"
   viewBox="0 0 4694.6665 1124"
   xmlns="http://www.w3.org/2000/svg"
   xmlns:svg="http://www.w3.org/2000/svg">
  <defs
     id="defs881" />
  <g
     id="g883">
    <path
       style="fill:#000000;stroke-width:1.33333"
       d="m 4086,1122.2644 c -18.4719,-0.9304 -46.3124,-3.263 -55.3334,-4.6361 -24.063,-3.6625 -51.8194,-7.3313 -60,-7.9307 -5.5,-0.403 -17.114,-2.5378 -25.8089,-4.744 -9.5609,-2.4259 -19.3096,-4.0238 -24.6667,-4.0431 -4.8717,-0.017 -11.2577,-0.6149 -14.191,-1.3276 -2.9334,-0.7127 -9.4888,-1.9112 -14.5678,-2.6633 -5.0789,-0.7521 -11.9789,-2.2304 -15.3333,-3.2851 -6.4288,-2.0213 -25.5391,-6.6294 -33.4323,-8.0614 -5.4766,-0.9937 -19.6532,-5.534 -22.9818,-7.3604 -1.2735,-0.6987 -3.1426,-1.2704 -4.1536,-1.2704 -1.0111,0 -3.3638,-1.2 -5.2284,-2.6666 -1.8646,-1.4667 -4.073,-2.6667 -4.9076,-2.6667 -0.8346,0 -7.0399,-2.6674 -13.7896,-5.9275 -6.7498,-3.2602 -14.0723,-6.3407 -16.2723,-6.8458 -2.2,-0.505 -4.9,-1.6464 -6,-2.5364 -1.1,-0.89 -5,-2.4207 -8.6667,-3.4017 -3.6666,-0.9809 -10.7228,-4.3722 -15.6802,-7.5361 -4.9576,-3.1639 -9.503,-5.7525 -10.101,-5.7525 -0.598,0 -2.5418,-1.5515 -4.3197,-3.4478 -1.7779,-1.8964 -5.6324,-4.5481 -8.5657,-5.8927 -2.9334,-1.3446 -9.0282,-5.3431 -13.5439,-8.8855 -4.5159,-3.5424 -14.0463,-10.9407 -21.1785,-16.4407 -7.1324,-5.49994 -14.917,-11.64992 -17.2988,-13.66662 -2.382,-2.0167 -5.0016,-3.6667 -5.8215,-3.6667 -0.8199,0 -1.4907,-0.4767 -1.4907,-1.0593 0,-0.5827 -2.85,-3.2859 -6.3333,-6.0072 -3.4833,-2.7213 -10.8179,-9.1446 -16.2991,-14.274 -5.4812,-5.1294 -10.386,-9.3261 -10.8994,-9.3261 -1.0263,0 -19.8015,-18.632 -19.8015,-19.6505 0,-0.9041 -7.9267,-11.011 -12.0567,-15.3728 -1.9216,-2.0295 -4.787,-6.2793 -6.3676,-9.4441 -1.5805,-3.1647 -4.0845,-6.8497 -5.5641,-8.1889 -1.4797,-1.3391 -4.3131,-5.6393 -6.2963,-9.5559 -1.9832,-3.9167 -4.0804,-7.12117 -4.6605,-7.12117 -0.5801,0 -1.0548,-0.64047 -1.0548,-1.42327 0,-0.78278 -2.7,-4.73778 -6,-8.78888 -3.3,-4.0511 -6,-7.95066 -6,-8.6657 0,-0.71504 -1.4588,-3.2127 -3.2419,-5.55036 -1.7829,-2.33766 -3.8893,-5.74762 -4.6808,-7.5777 -0.7914,-1.83009 -2.7826,-5.46234 -4.4248,-8.07168 -1.6422,-2.60934 -4.7486,-7.70934 -6.9032,-11.33333 -2.1545,-3.624 -6.6545,-10.46604 -10,-15.20456 -6.5006,-9.20756 -8.8124,-12.86279 -10.1513,-16.05119 -0.4619,-1.1 -1.4561,-3.29278 -2.2095,-4.87286 -0.7533,-1.58007 -1.0072,-3.45955 -0.564,-4.17662 0.4432,-0.71706 -0.425,-2.86848 -1.9293,-4.78093 -1.5044,-1.91244 -2.3864,-4.04151 -1.9601,-4.73125 0.4262,-0.68974 0.1653,-1.63095 -0.58,-2.09156 -0.7454,-0.46062 -1.3551,-2.25922 -1.3551,-3.9969 0,-1.73766 -0.9,-4.0594 -2,-5.1594 -1.1,-1.1 -2,-2.70218 -2,-3.5604 0,-0.85822 -0.8232,-3.45108 -1.8295,-5.7619 -7.1782,-16.48562 -9.0108,-21.28602 -10.0797,-26.40315 -0.6661,-3.18909 -2.8528,-11.79836 -4.8593,-19.13169 -2.0064,-7.33334 -3.7562,-14.83334 -3.8883,-16.66667 -0.132,-1.83333 -0.6284,-4.23333 -1.1028,-5.33333 -5.0689,-11.75242 -11.172,-36.63138 -11.4457,-46.65779 -0.1094,-4.02845 -0.7458,-9.42845 -1.413,-12 -1.17,-4.51008 -2.9434,-17.22585 -2.9766,-21.34221 -0.013,-1.1 -0.8204,-5.3 -1.8034,-9.33334 -2.1781,-8.93666 -2.3226,-13.02462 -2.2166,-62.66666 0.124,-57.73046 0.7708,-72.65428 3.218,-74.16668 2.0904,-1.29194 6.2956,-12.17574 6.2416,-16.15424 -0.057,-4.22996 3.531,-19.11324 6.0308,-25.01242 0.9322,-2.2 3.3548,-9.1 5.3836,-15.33333 3.137,-9.63889 13.3106,-34.43199 22.1581,-54 1.3263,-2.93333 3.6631,-8.47508 5.1929,-12.31499 1.5299,-3.8399 4.867,-10.4399 7.4156,-14.66666 2.5488,-4.22676 4.6356,-8.96155 4.6375,-10.52176 0,-1.5602 0.9416,-3.61535 2.0883,-4.56699 1.1466,-0.95164 4.641,-6.87511 7.7653,-13.16327 5.764,-11.60117 10.1972,-18.92997 15.7455,-26.02944 6.4625,-8.26957 14.3762,-20.13374 14.39,-21.57364 0.013,-0.82686 0.9736,-2.29944 2.1458,-3.27238 1.1724,-0.97294 4.7894,-5.6964 8.0378,-10.49659 3.2485,-4.80019 9.2145,-13.22761 13.2577,-18.72761 4.0433,-5.5 9.1564,-13.34951 11.3624,-17.44335 2.4555,-4.55684 11.4044,-15.15657 23.0764,-27.33333 10.4861,-10.9395 22.9061,-24.0287 27.6,-29.08712 23.0005,-24.78695 38.8489,-38.69753 53.5144,-46.97092 4.5943,-2.59184 10.1848,-6.104499 12.4233,-7.805916 8.966,-6.81465 36.9791,-21.88377 53.2632,-28.65193 1.4667,-0.60959 5.6667,-2.45176 9.3334,-4.09372 12.8198,-5.74081 16.005,-7.11906 16.6666,-7.21173 0.9534,-0.13352 24.2724,-11.37198 26.6667,-12.85183 5.9171,-3.65724 30.0785,-11.69389 42.6667,-14.19186 5.5,-1.09142 13.9,-3.37846 18.6666,-5.08232 4.7667,-1.70386 14.6667,-4.09294 22,-5.30907 7.3334,-1.21613 15.4334,-3.01293 18,-3.9929 2.5667,-0.97997 15.912,-2.75415 29.6564,-3.94263 13.7443,-1.18848 29.3443,-3.0394995 34.6667,-4.1133795 20.6448,-4.1654802 39.0251,-6.8434502 55.0103,-8.01495022 12.5224,-0.91772 43.7832,1.81417002 63.535,5.55235002 5.611,1.06191 12.511,2.1456502 15.3334,2.4083102 9.1673,0.85314 21.465,3.4965495 29.3841,6.3161395 8.4324,3.00232 10.3955,3.50091 18.4141,4.67675 2.9334,0.43014 6.2334,1.52213 7.3334,2.42666 1.1,0.90453 5,2.39748 8.6666,3.31767 15.4602,3.8799 21.3954,5.87461 31.6534,10.63808 3.4761,1.61414 6.9261,2.56028 7.6666,2.10254 0.7407,-0.45774 1.3467,-0.19685 1.3467,0.57977 0,0.77661 0.8078,1.41202 1.7952,1.41202 1.6721,0 7.8138,2.52392 13.1866,5.41909 1.2735,0.68617 3.488,1.24758 4.9214,1.24758 1.4333,0 2.9769,0.6 3.4301,1.33333 0.4532,0.73333 2.0005,1.33333 3.4385,1.33333 1.438,0 6.2952,1.49562 10.7939,3.32359 4.4987,1.82798 11.8368,4.06397 16.3068,4.96887 4.4701,0.9049 8.9045,2.39343 9.8541,3.30784 0.9498,0.91441 4.067,2.29274 6.9274,3.06295 2.8602,0.77021 8.7996,3.18606 13.1985,5.36856 4.3988,2.18251 9.2316,3.96819 10.7393,3.96819 1.5079,0 2.7415,0.50397 2.7415,1.11992 0,0.61596 2.55,1.84585 5.6667,2.73309 13.2734,3.77866 18.9154,5.87205 20.738,7.6945 1.0665,1.06655 2.7618,1.62351 3.7672,1.23769 1.0054,-0.38583 1.8281,-0.0849 1.8281,0.66867 0,0.7536 0.6,0.99936 1.3333,0.54613 0.7334,-0.45322 1.3334,-0.18863 1.3334,0.58798 0,0.77661 1.15,1.41202 2.5556,1.41202 1.4054,0 2.7554,0.45 3,1 0.7034,1.58291 11.2482,7 13.626,7 1.1834,0 2.1517,0.6 2.1517,1.333337 0,0.73333 1.84,1.33333 4.0889,1.33333 2.3074,0 5.9932,1.452429 8.4592,3.333329 2.4036,1.83334 4.9707,3.33334 5.7044,3.33334 0.7338,0 2.4202,1.2 3.7475,2.66666 1.3273,1.46667 2.8995,2.66667 3.4937,2.66667 1.9274,0 13.127,7.60153 12.3478,8.38081 -0.4158,0.41574 0.9498,1.64657 3.0346,2.73517 2.0848,1.08861 5.5324,3.81151 7.6612,6.05091 2.129,2.23939 4.3571,3.77107 4.9515,3.40373 0.5943,-0.36733 2.2708,0.52235 3.7256,1.97709 1.4547,1.45473 5.0765,3.29974 8.0487,4.10002 2.972,0.80028 5.4036,1.91728 5.4036,2.48224 0,0.56495 3.246,2.48654 7.2133,4.27019 3.9672,1.78364 6.9504,3.66819 6.6292,4.18785 -0.3211,0.51967 0.7829,1.66938 2.4535,2.55488 1.6705,0.88551 8.7373,6.3785 15.704,12.20663 6.9666,5.82813 13.5666,10.94208 14.6666,11.36433 1.1,0.42224 2.9,1.77056 4,2.99626 1.1,1.22569 3.8,3.16377 6,4.30684 2.2,1.14308 5.7623,3.93188 7.9162,6.19734 2.1538,2.26548 4.5993,4.11904 5.4342,4.11904 0.835,0 2.9274,1.5 4.6496,3.33334 1.7223,1.83333 3.6531,3.33333 4.2906,3.33333 0.6374,0 3.6072,2.25 6.5994,5 2.9923,2.75 5.8811,4.87836 6.4195,4.72969 0.5385,-0.14866 2.6764,1.50134 4.7509,3.66667 2.0746,2.16533 4.4096,3.95003 5.1891,3.96597 0.7795,0.016 4.3963,3.01596 8.0373,6.66667 3.6411,3.65072 7.3378,6.63767 8.2148,6.63767 0.8771,0 3.1094,1.8 4.9604,4 1.8512,2.2 4.3352,4 5.52,4 1.187,0 2.9995,2.02345 4.0372,4.50709 1.0359,2.47891 3.7052,6.04017 5.932,7.91392 2.2268,1.87376 4.0488,4.27015 4.0488,5.32532 0,1.05516 2.0951,4.20577 4.6558,7.00135 2.5606,2.79557 4.9608,6.04405 5.3336,7.21884 0.3729,1.17478 3.3778,4.39278 6.6776,7.15109 3.2998,2.75831 5.9997,5.60767 5.9997,6.33191 0,0.72424 3.7973,6.84437 8.4387,13.6003 7.2334,10.52926 17.1621,29.32722 25.3262,47.95018 1.2056,2.75 2.8371,5 3.6255,5 0.7885,0 1.1289,0.49302 0.7565,1.0956 -0.3724,0.60258 0.189,2.76502 1.2476,4.80544 1.0586,2.04041 1.6403,4.16994 1.2928,4.73229 -0.3476,0.56236 0.5556,2.39172 2.0071,4.06524 1.4513,1.67353 2.6389,3.73784 2.6389,4.58736 0,0.84951 1.2062,2.83923 2.6804,4.42159 1.4742,1.58236 2.5315,3.3455 2.3496,3.91808 -0.6584,2.07238 3.3135,9.6528 4.6311,8.83852 0.7505,-0.46386 1.0583,-0.012 0.6921,1.01694 -0.3628,1.01875 -0.047,3.03815 0.7022,4.48756 1.5924,3.08178 3.514,10.3497 4.2388,16.03138 0.2806,2.2 1.2534,5.8 2.162,8 0.9084,2.2 1.5184,7 1.3554,10.66666 -0.1629,3.66667 0.5934,10.07196 1.6806,14.23398 1.0873,4.16202 1.6748,8.72257 1.3054,10.13457 -0.3692,1.41199 0.2098,3.44833 1.2867,4.52521 1.3636,1.36364 1.5773,2.63814 0.7039,4.19878 -1.2651,2.26072 -1.1432,2.43862 1.8785,2.7408 1.0259,0.10253 2.0611,3.49848 2.6924,8.83333 1.3117,11.08212 1.2889,9.11077 0.2921,25.33333 -0.4732,7.7 -0.8122,19.1 -0.7536,25.33334 0.059,6.23333 0.075,11.93333 0.036,12.66666 -0.039,0.73334 -0.2608,4.93334 -0.4937,9.33334 -0.2331,4.4 -1.0857,14 -1.8948,21.33333 -0.8091,7.33333 -1.7575,17.23333 -2.1076,22 -1.8792,25.59077 -3.8095,43.49011 -4.8225,44.719 -0.6283,0.76212 -1.4712,6.46212 -1.873,12.66667 -1.2802,19.76762 -2.1497,25.39306 -6.26,40.50144 -2.2114,8.12876 -4.3529,16.87956 -4.7589,19.44622 -0.406,2.56667 -1.56,5.85018 -2.5643,7.29668 -1.0044,1.4465 -1.8261,4.6204 -1.8261,7.05311 0,2.43272 -1.1236,6.64921 -2.4968,9.37 -1.3733,2.72079 -3.5211,9.74688 -4.7728,15.61355 -1.2517,5.86666 -4.0433,16.66666 -6.2036,24 -2.1601,7.33333 -4.1637,14.53333 -4.4524,16 -0.2887,1.46666 -1.4735,4.8974 -2.6329,7.62384 -1.1595,2.72645 -2.1082,7.04104 -2.1082,9.58797 0,2.54695 -0.5337,4.96065 -1.186,5.3638 -0.6522,0.40316 -1.5025,2.68856 -1.8892,5.07869 -1.6184,10.00066 -7.1014,25.7853 -15.0706,43.38522 -1.7531,3.87172 -3.1875,7.92986 -3.1875,9.01808 0,1.08822 -0.5268,3.02044 -1.1705,4.29382 -3.0336,6.00023 -5.4962,12.62858 -5.4962,14.7941 0,1.3136 -2.7,5.86548 -6,10.11518 -3.3,4.2497 -6,8.1415 -6,8.6483 0,1.2976 -3.8133,5.1238 -12.0502,12.091 -3.9015,3.3 -12.8362,11.7239 -19.855,18.7198 -7.0188,6.9959 -15.0948,14.4959 -17.9468,16.6667 -2.8518,2.1707 -5.959,4.6968 -6.9046,5.6135 -0.9458,0.9167 -2.299,1.6667 -3.0071,1.6667 -0.7081,0 -3.0904,1.6841 -5.2939,3.7424 -2.2034,2.0583 -7.8169,5.7719 -12.4744,8.2523 -4.6573,2.4805 -11.9049,6.9464 -16.1057,9.9243 -4.2007,2.9779 -12.5055,8.7143 -18.4551,12.7476 -5.9494,4.0334 -14.3522,10.03332 -18.6726,13.33332 -4.3204,3.3 -10.804,8.2452 -14.4078,10.9892 -3.6038,2.7441 -7.6642,5.3962 -9.0229,5.8936 -1.3588,0.4974 -4.1665,2.3023 -6.2395,4.0108 -2.0729,1.7086 -4.8932,3.1064 -6.267,3.1064 -1.374,0 -2.978,0.8124 -3.5644,1.8054 -1.4479,2.4514 -5.765,4.5936 -15.5223,7.7025 -4.5159,1.4388 -10.3107,3.5695 -12.8773,4.7347 -12.823,5.8217 -16.997,7.9435 -20.6667,10.5054 -2.2,1.5359 -5.8,3.7163 -8,4.8453 -13.2995,6.8251 -25.5067,13.4957 -26.6,14.5355 -0.6967,0.6625 -2.6112,1.2046 -4.2547,1.2046 -1.6433,0 -3.3265,0.5478 -3.7402,1.2173 -0.4139,0.6695 -3.2762,1.6437 -6.3608,2.1648 -3.0847,0.5212 -6.5315,1.4304 -7.6596,2.0205 -12.5155,6.5464 -34.5452,13.7554 -54.718,17.9058 -9.1667,1.8859 -18.1422,4.0574 -19.9456,4.8254 -1.8035,0.7681 -8.7035,1.999 -15.3334,2.7354 -6.6298,0.7364 -13.8543,2.1379 -16.0543,3.1145 -2.2,0.9767 -8.5,2.1423 -14,2.5903 -5.5,0.4481 -13,1.7223 -16.6667,2.8317 -3.6667,1.1093 -9.6667,2.297 -13.3333,2.6392 -3.6667,0.3423 -9.6667,1.1844 -13.3334,1.8715 -8.5069,1.594 -27.3865,4.0027 -30,3.8276 -1.1,-0.074 -8,0.1627 -15.3333,0.5254 -7.3333,0.3628 -21.7333,0.2364 -32,-0.2807 z m 42.6666,-26.6657 c 30.0932,-3.1495 40.102,-4.0299 60.6667,-5.3362 27.4449,-1.7434 43.7497,-3.4341 60,-6.2218 14.1309,-2.424 41.1432,-9.3008 43.2817,-11.0186 0.7617,-0.6118 5.5849,-2.707 10.7183,-4.6559 5.1333,-1.9489 11.1333,-4.3811 13.3333,-5.4049 2.2,-1.0238 11.8,-4.9533 21.3333,-8.7324 9.5334,-3.7791 18.8334,-7.4948 20.6667,-8.2572 6.8335,-2.8417 8.7485,-3.5509 12,-4.4443 3.5105,-0.9645 41.738,-19.7571 58.5415,-28.7789 5.431,-2.9159 13.531,-7.8945 18,-11.0634 4.4688,-3.16894 11.8404,-7.62352 16.3812,-9.89902 4.5408,-2.2755 8.7408,-4.8963 9.3333,-5.8239 1.8801,-2.9432 11.536,-9.8073 17.4315,-12.3916 3.1281,-1.3712 6.5576,-3.8212 7.6212,-5.4445 1.0636,-1.6232 4.5085,-4.2372 7.6554,-5.8088 21.0111,-10.4934 56.2362,-43.3943 75.0359,-70.0849 1.4667,-2.0823 3.9057,-5.32434 5.4203,-7.20465 3.528,-4.38015 7.1614,-10.45029 13.1456,-21.96089 2.6332,-5.06487 5.2914,-9.86487 5.9074,-10.66667 1.792,-2.33299 5.5267,-14.97509 5.5267,-18.70836 0,-1.87887 0.67,-3.41613 1.4888,-3.41613 0.8595,0 1.1771,-1.19228 0.7513,-2.82031 -0.4056,-1.55116 -0.246,-3.80116 0.3546,-5 2.4662,-4.92228 6.7386,-17.04909 6.7386,-19.12677 0,-1.22588 0.6,-2.5997 1.3334,-3.05292 0.7333,-0.45323 1.3333,-1.98864 1.3333,-3.41203 0,-1.42339 0.5251,-2.58797 1.1667,-2.58797 0.6416,0 1.5336,-1.83483 1.9821,-4.07739 0.4485,-2.24256 1.7235,-4.98541 2.8333,-6.09523 1.1099,-1.10982 2.0179,-3.7396 2.0179,-5.84393 0,-2.10435 0.6,-4.19689 1.3333,-4.65012 0.7334,-0.45323 1.3334,-2.16864 1.3334,-3.81203 0,-1.64338 0.56,-3.55797 1.2445,-4.25464 0.6845,-0.69666 1.4963,-3.66666 1.804,-6.6 0.3077,-2.93333 1.8183,-9.53333 3.3569,-14.66666 1.5386,-5.13334 3.1011,-10.83334 3.4722,-12.66667 0.3712,-1.83333 1.0705,-4.68333 1.5541,-6.33333 0.6416,-2.18904 0.3267,-3 -1.1651,-3 -1.1244,0 -2.2444,0.45277 -2.4889,1.00614 -0.2444,0.55339 -4.6444,3.64003 -9.7777,6.85919 -5.1334,3.21916 -10.9591,6.9664 -12.946,8.32719 -1.987,1.36077 -3.9967,2.47414 -4.4659,2.47414 -0.4693,0 -7.2436,3.05655 -15.054,6.79232 -17.7495,8.4897 -22.9893,10.59151 -46.2008,18.5322 -23.6701,8.09758 -39.2932,12.78576 -48.8707,14.66514 -4.1454,0.81346 -10.5152,2.56749 -14.1548,3.89784 -3.6397,1.33034 -10.7478,3.12228 -15.7961,3.98208 -5.0481,0.8598 -13.9784,2.4946 -19.8451,3.63286 -5.8666,1.13827 -17.8666,3.20699 -26.6666,4.59716 -8.8,1.39016 -18.7,3.17831 -22,3.97367 -3.3,0.79536 -9,1.92299 -12.6667,2.50584 -3.6667,0.58285 -9.6667,1.69913 -13.3333,2.48061 -3.6667,0.7815 -14.9603,1.78018 -25.0968,2.21928 -10.1366,0.43912 -22.7366,1.72122 -28,2.84911 -5.2635,1.12789 -17.6699,2.24436 -27.5699,2.48104 -20.5601,0.49153 -34.4725,2.47581 -40.5008,5.77652 -3.6084,1.97573 -7.1993,2.19956 -26.8325,1.67247 -29.6725,-0.79663 -46.4908,-0.70971 -62,0.32045 -38.3483,2.54716 -64.0257,3.17683 -85.3333,2.09253 -12.8334,-0.65305 -34.7334,-1.48033 -48.6667,-1.83841 -38.688,-0.99424 -69.0213,-3.29079 -77.1747,-5.84295 -2.2873,-0.71593 -8.9586,-1.98956 -14.8253,-2.83029 -5.8667,-0.84072 -13.5856,-2.37553 -17.1531,-3.41069 -3.5676,-1.03516 -8.6676,-1.89528 -11.3333,-1.91139 -2.6659,-0.0161 -7.3397,-1.16119 -10.3867,-2.54463 -3.8062,-1.72826 -9.947,-2.74049 -19.625,-3.2349 -7.747,-0.39576 -15.2551,-1.34551 -16.6846,-2.11054 -1.4294,-0.76504 -4.4734,-1.01609 -6.7644,-0.5579 -3.0261,0.60522 -4.6058,0.2357 -5.7758,-1.35095 -1.8324,-2.48505 -26.5586,-9.94791 -35.6104,-10.74796 -8.2818,-0.73197 -19.1844,-3.9566 -28.6736,-8.48059 -4.3962,-2.0959 -11.5931,-4.90294 -15.9931,-6.23786 -4.4,-1.33492 -9.5,-3.47072 -11.3333,-4.74623 -1.8334,-1.27551 -6.6334,-3.21732 -10.6667,-4.31515 C 3749.3,762.1552 3741.5,760.0003 3736,758.46437 c -5.5,-1.53593 -11.6855,-2.80672 -13.7454,-2.82397 -2.1512,-0.018 -3.3946,-0.59891 -2.9213,-1.36472 0.4532,-0.73334 -0.3351,-1.33334 -1.7519,-1.33334 -2.6229,0 -12.718,-3.90804 -19.1205,-7.40201 -1.9465,-1.06223 -4.3465,-1.9368 -5.3333,-1.94351 -2.1831,-0.0148 -11.103,-4.42809 -21.5804,-10.67722 -9.1956,-5.48458 -20.2903,-11.73618 -29.5472,-16.64927 -6.862,-3.64195 -12.4647,-7.62671 -17.611,-12.5254 -1.6193,-1.54143 -3.5881,-2.80259 -4.3752,-2.80259 -0.7869,0 -1.7894,-0.93448 -2.2277,-2.07662 -0.4383,-1.14215 -1.5524,-1.78675 -2.4756,-1.43243 -0.9233,0.35431 -3.3925,-1.41121 -5.4872,-3.92337 -2.0947,-2.51218 -4.7397,-4.56758 -5.878,-4.56758 -1.1383,0 -3.4647,-1.05 -5.1696,-2.33333 -5.5032,-4.14216 -20.7352,-16.83343 -22.1091,-18.4212 -0.7333,-0.84753 -4.0641,-3.37128 -7.4017,-5.60831 -6.8717,-4.60584 -21.6543,-18.93617 -30.5983,-29.66245 -3.3,-3.95759 -9.6612,-11.12091 -14.1358,-15.91849 -7.1168,-7.63022 -18.636,-20.787 -21.6458,-24.72288 -0.5606,-0.73334 -1.4204,-2.38334 -1.9104,-3.66667 -0.49,-1.28333 -1.8676,-2.33333 -3.061,-2.33333 -1.921,0 -2.0762,1.64665 -1.3515,14.33333 1.0941,19.15501 3.234,41.99103 4.7791,51 0.6916,4.03333 1.594,10.93333 2.005,15.33333 0.4112,4.4 1.3622,12.5 2.1134,18 3.5409,25.92778 3.9748,27.82075 12.5292,54.66667 1.9862,6.23333 3.8388,12.49731 4.1168,13.91995 0.278,1.42264 1.718,5.1661 3.2,8.3188 1.4818,3.1527 2.6944,6.34686 2.6944,7.09814 0,0.75128 0.552,2.40782 1.2268,3.6812 1.3605,2.56771 6.1572,15.42994 7.364,19.74686 0.4252,1.52073 1.8161,3.93481 3.091,5.36462 1.275,1.42982 4.6091,7.08559 7.4092,12.56839 2.8,5.48279 7.9986,15.48396 11.5523,22.22484 3.5537,6.74087 6.8936,13.64087 7.422,15.33333 0.5284,1.69246 1.3695,3.3772 1.8691,3.74387 0.4994,0.36667 2.7746,3.36667 5.0557,6.66667 2.2812,3.3 5.6916,7.62381 7.5787,9.60848 1.8872,1.98465 3.4312,4.23465 3.4312,5 0,0.76533 0.6,1.39152 1.3333,1.39152 0.7333,0 1.3333,0.63814 1.3333,1.4181 0,2.8856 18.8336,27.8549 30.6815,40.677 6.7277,7.281 15.0267,16.5328 18.4421,20.5595 3.4154,4.0266 7.5598,8.4202 9.2098,9.7634 1.65,1.3432 3,2.9714 3,3.6182 0,1.4242 6.3866,7.9638 7.7776,7.9638 0.5444,0 3.0672,1.7756 5.6061,3.9458 2.5389,2.1702 5.0201,3.9702 5.5137,4 0.4936,0.03 2.6054,1.7042 4.6928,3.7209 15.4796,14.9547 28.7368,25.7956 37.1896,30.41152 5.4504,2.9763 10.6247,6.1263 11.4984,7 0.8736,0.8736 2.2184,1.5898 2.9884,1.5916 0.77,0 3.3355,1.6574 5.7011,3.6794 2.3655,2.0219 6.5655,4.8408 9.3333,6.2641 2.7678,1.4234 5.9323,3.3016 7.0323,4.1739 2.048,1.624 8.228,4.2774 24.6667,10.5905 5.1333,1.9714 11.8504,4.7179 14.9268,6.1033 3.0765,1.3854 6.0785,2.519 6.6713,2.519 0.5928,0 5.4185,2.1057 10.7237,4.6794 5.3054,2.5737 12.8032,5.5172 16.662,6.5411 9.6814,2.5689 28.4574,8.1283 35.6828,10.5654 3.3,1.113 9.6,3.0056 14,4.2058 4.4,1.2002 12.2,3.3679 17.3334,4.8171 19.3624,5.4663 26.8964,7.1317 47.3333,10.463 18.4655,3.01 41.5917,7.478 48,9.2736 2.5667,0.7191 17.2667,1.6858 32.6667,2.1481 15.4,0.4623 31.9,1.3309 36.6666,1.9302 10.3984,1.3075 61.1686,0.4608 78,-1.3007 z m -2,-296.63642 c 81.3095,-0.81494 135.8123,-3.08746 177.4867,-7.4004 7.7844,-0.80562 18.2844,-1.66398 23.3333,-1.90746 20.0868,-0.96866 61.7207,-6.37913 72.5133,-9.42334 6.2334,-1.7582 13.7334,-3.59656 16.6667,-4.08527 5.4232,-0.90352 20.2075,-4.58275 28.6596,-7.13225 2.5627,-0.77303 8.2627,-2.03595 12.6667,-2.8065 4.4038,-0.77053 13.107,-2.54468 19.3404,-3.94253 6.2333,-1.39785 18.2333,-3.51947 26.6666,-4.71469 8.4334,-1.19523 16.0495,-2.76626 16.9248,-3.49116 1.6204,-1.34204 5.1914,-2.43088 29.4551,-8.9815 7.5424,-2.03622 15.3424,-4.90482 17.3333,-6.37466 1.9911,-1.46984 6.0202,-3.4559 8.9535,-4.41346 5.7661,-1.88232 22.5501,-10.66124 29.8527,-15.61456 2.4857,-1.68602 5.2929,-3.06549 6.2381,-3.06549 0.9453,0 2.5116,-0.78367 3.4807,-1.74148 0.969,-0.95783 3.7118,-2.88719 6.0952,-4.28748 2.3833,-1.40029 4.3333,-3.05204 4.3333,-3.67053 0,-0.61851 0.5097,-0.80952 1.1328,-0.42448 1.1784,0.72836 15.1497,-10.50679 16.0435,-12.90156 0.2802,-0.75103 2.419,-3.04204 4.7529,-5.09115 4.4208,-3.88156 11.4041,-21.23564 11.4041,-28.34025 0,-5.04532 -6.1554,-18.20974 -8.5146,-18.20974 -3.1911,0 -3.5968,-2.03349 -1.3174,-6.60281 2.7899,-5.59247 5.6523,-6.5768 8.5868,-2.95287 4.8058,5.93484 6.4872,3.14047 6.6999,-11.13385 0.076,-5.12076 1.0305,-12.57629 2.1208,-16.56787 1.0901,-3.99157 2.2696,-10.59157 2.6212,-14.66666 1.0583,-12.26662 1.1204,-12.68991 2.0783,-14.17319 0.5082,-0.78683 0.7209,-3.18683 0.4729,-5.33333 -2.0143,-17.42682 -2.1584,-21.69768 -0.7615,-22.56103 0.9422,-0.58223 1.1568,-2.49885 0.5752,-5.13532 -0.5102,-2.31352 -1.1094,-8.1064 -1.3317,-12.87307 -0.7767,-16.66201 -1.8044,-24.79792 -4.2107,-33.33333 -0.3101,-1.1 -0.8142,-7.7 -1.1202,-14.66667 -0.7095,-16.15274 -1.7248,-23.73498 -3.3094,-24.71428 -0.6909,-0.42704 -1.2562,-2.10752 -1.2562,-3.7344 0,-1.62688 -0.8428,-4.16128 -1.873,-5.632 -1.0301,-1.47072 -2.2257,-5.95421 -2.6566,-9.96333 -0.4311,-4.00913 -1.3855,-9.37556 -2.1208,-11.92541 -0.7355,-2.54986 -0.9756,-5.775 -0.5339,-7.16698 0.4685,-1.47629 0.2639,-2.19752 -0.4912,-1.73086 -1.476,0.91226 -3.6788,-11.95835 -4.2281,-24.70416 -0.053,-1.23096 -0.8652,-3.03096 -1.805,-4 -0.9396,-0.96906 -1.8448,-3.56191 -2.0114,-5.76191 -0.1667,-2.2 -0.8979,-4.2 -1.6248,-4.44444 -0.7271,-0.24445 -1.3219,-1.85904 -1.3219,-3.58799 0,-1.72893 -0.6,-3.51434 -1.3333,-3.96757 -0.7334,-0.45323 -1.3334,-2.30747 -1.3334,-4.12053 0,-1.81307 -0.8965,-3.64054 -1.9924,-4.06103 -1.0957,-0.42049 -1.6818,-1.26676 -1.3025,-1.8806 0.8873,-1.43565 -2.3645,-11.93784 -3.6964,-11.93784 -0.5548,0 -1.0087,-1.2 -1.0087,-2.66667 0,-1.46666 -1.2,-3.86666 -2.6666,-5.33333 -1.4667,-1.46667 -2.6667,-3.88549 -2.6667,-5.37517 0,-1.4897 -0.9,-3.05388 -2,-3.47599 -1.1,-0.42212 -2,-1.67408 -2,-2.78213 0,-1.10807 -1.8209,-4.19388 -4.0464,-6.85735 -5.6652,-6.78009 -5.9784,-7.22208 -6.9837,-9.85507 -0.4927,-1.29013 -1.5151,-2.19013 -2.2723,-2 -0.7571,0.19015 -2.7755,-2.05429 -4.4853,-4.98762 -1.7099,-2.93334 -3.8071,-5.18334 -4.6606,-5 -0.8534,0.18333 -1.5517,-0.48336 -1.5517,-1.48155 0,-0.99819 -2.7,-4.71424 -6,-8.25788 -3.3,-3.54365 -6,-7.04751 -6,-7.78635 0,-0.73882 -4.65,-5.92688 -10.3333,-11.529 -5.6834,-5.60212 -11.3512,-11.33157 -12.5954,-12.73212 -4.3382,-4.88393 -10.2452,-9.87977 -11.6816,-9.87977 -0.7957,0 -2.1304,-1.5 -2.9657,-3.33333 -0.8352,-1.83334 -2.282,-3.33334 -3.2148,-3.33334 -0.9329,0 -2.0348,-1.06689 -2.4487,-2.37088 -1.1016,-3.47068 -21.455,-20.8432 -33.9322,-28.96245 -1.127,-0.73333 -2.8672,-2.08333 -3.8672,-3 -1,-0.91667 -2.3482,-1.66667 -2.9958,-1.66667 -0.6476,0 -2.6774,-1.5 -4.5108,-3.33333 -1.8333,-1.83333 -3.9605,-3.33333 -4.7272,-3.33333 -0.7666,0 -1.394,-0.61486 -1.394,-1.36634 0,-0.75148 -1.5,-1.93664 -3.3333,-2.63366 -1.8333,-0.69703 -3.3333,-1.88219 -3.3333,-2.63367 0,-0.75148 -0.8596,-1.36633 -1.9102,-1.36633 -1.0505,0 -2.291,-1.2 -2.7565,-2.66667 -0.4655,-1.46667 -1.8883,-2.66667 -3.1616,-2.66667 -1.2735,0 -4.3117,-2.05984 -6.7519,-4.57741 -2.4401,-2.51757 -6.1578,-5.29037 -8.2616,-6.16176 -2.1037,-0.87139 -3.8249,-2.11156 -3.8249,-2.75592 0,-0.64436 -0.8949,-1.17157 -1.9887,-1.17157 -1.0938,0 -2.7381,-1.2 -3.6541,-2.66667 -0.9159,-1.46667 -2.4209,-2.66667 -3.3445,-2.66667 -0.9236,0 -1.6794,-0.6 -1.6794,-1.33333 0,-0.73333 -0.8982,-1.33333 -1.9961,-1.33333 -1.0979,0 -4.2479,-1.97728 -7,-4.39396 -2.7521,-2.41667 -7.8539,-5.86564 -11.3372,-7.66438 -3.4833,-1.79873 -6.3333,-3.72145 -6.3333,-4.2727 0,-0.55127 -1.2,-1.0023 -2.6667,-1.0023 -1.4667,0 -2.6667,-0.49861 -2.6667,-1.10802 0,-0.60942 -1.65,-1.95846 -3.6666,-2.99788 -2.0167,-1.03942 -3.9667,-2.1908 -4.3334,-2.55864 -1.5865,-1.59156 -6.7957,-4.00212 -8.6485,-4.00212 -1.11,0 -2.0181,-0.6 -2.0181,-1.33334 0,-0.73333 -1.1175,-1.33333 -2.4834,-1.33333 -1.3658,0 -4.7482,-1.8 -7.5166,-4 -4.6878,-3.72535 -6.4839,-4.55517 -9,-4.15789 -0.55,0.0868 -1,-0.38342 -1,-1.04501 0,-1.11425 -8.3262,-4.69322 -8.9427,-3.84394 -0.1517,0.20909 -1.0517,-0.62658 -2,-1.85706 -0.9481,-1.23048 -4.274,-2.90361 -7.3907,-3.71806 -3.1166,-0.81445 -5.6666,-2.0577 -5.6666,-2.76277 0,-0.70506 -1.4266,-1.28194 -3.1702,-1.28194 -1.7434,0 -3.9169,-0.9 -4.8298,-2 -0.913,-1.1 -2.6946,-2 -3.9592,-2 -1.2647,0 -3.6687,-1.18754 -5.3423,-2.63899 -1.6735,-1.45144 -3.5695,-2.313409 -4.2133,-1.91549 -0.6439,0.39793 -1.5307,-0.21453 -1.9707,-1.361009 -0.4399,-1.14648 -1.8293,-2.084507 -3.0876,-2.084507 -1.2583,0 -5.844,-1.6837 -10.1907,-3.74155 -4.3466,-2.05786 -12.4029,-5.12796 -17.9029,-6.82244 -5.5,-1.69448 -12.1817,-4.21078 -14.8483,-5.59177 -2.6664,-1.381 -5.9964,-2.5109 -7.4,-2.5109 -1.4034,0 -3.1217,-0.53932 -3.8184,-1.19849 -1.7188,-1.62631 -20.4049,-7.14274 -24.806,-7.32312 -1.9466,-0.0798 -3.2941,-0.54189 -2.9944,-1.02691 0.2999,-0.48501 -1.8574,-1.28775 -4.794,-1.78386 -2.9364,-0.49611 -5.3389,-1.33118 -5.3389,-1.85571 0,-0.52453 -4.35,-2.33169 -9.6666,-4.01592 -5.3167,-1.68422 -12.3667,-4.54673 -15.6667,-6.36113 -5.9769,-3.28622 -9.2791,-4.3309 -33.3333,-10.5456 -6.9667,-1.79992 -14.1667,-4.09337 -16,-5.09657 -1.8334,-1.00319 -5.9324,-2.25297 -9.109,-2.77728 -3.1766,-0.52431 -7.3766,-1.78858 -9.3333,-2.80948 -1.9568,-1.02089 -4.5723,-1.85987 -5.8124,-1.86439 -1.24,-0.005 -2.5768,-0.5294 -2.9704,-1.16641 -0.7625,-1.23369 -7.4987,-2.52139 -19.4416,-3.7165 -4.0333,-0.40361 -7.9333,-1.18945 -8.6667,-1.74632 -2.295,-1.74274 -15.5486,-2.69088 -18.1505,-1.29844 -1.8007,0.9637 -4.7721,0.57036 -10.8321,-1.4339 -6.6583,-2.20214 -11.3231,-2.71645 -23.0174,-2.5377 -8.0666,0.12331 -16.81,0.74363 -19.4296,1.37851 -2.6196,0.63488 -10.7196,1.46195 -18,1.83793 -15.0365,0.77654 -30.223,2.86182 -35.4434,4.86681 -1.9468,0.74772 -3.847,2.53432 -4.2224,3.97022 -0.5084,1.94399 -1.4772,2.43042 -3.7936,1.90471 -1.7111,-0.38832 -4.7511,-0.97075 -6.7556,-1.29429 -2.0046,-0.32355 -4.188,-0.9241 -4.8523,-1.33456 -0.6641,-0.41046 -4.124,-0.0977 -7.6885,0.69508 -3.5647,0.79275 -10.3812,1.91613 -15.1479,2.49641 -17.6744,2.15162 -40.4175,6.98358 -45.0092,9.5626 -2.7529,1.54624 -5.9711,2.35003 -7.6859,1.91966 -1.6224,-0.40721 -6.1797,0.27873 -10.1274,1.52432 -3.9476,1.24559 -7.7775,2.30283 -8.5108,2.34942 -0.7334,0.0466 -1.9818,0.4915 -2.7743,0.98866 -1.7344,1.08806 -10.3343,3.9201 -21.2257,6.98996 -20.7366,5.84476 -49.3743,17.82319 -59.5392,24.9037 -1.9466,1.35589 -4.3116,2.46525 -5.2558,2.46525 -0.9441,0 -5.7564,2.4 -10.694,5.33334 -4.9374,2.93333 -9.3714,5.33333 -9.853,5.33333 -0.4818,0 -3.4387,2.1 -6.571,4.666666 -3.1322,2.56666 -6.0545,4.66666 -6.4938,4.66666 -1.1216,0 -17.0098,11.23783 -20.3854,14.41877 -1.5356,1.44708 -4.8356,3.6842 -7.3333,4.97137 -2.4976,1.28716 -5.3159,3.43756 -6.2627,4.77864 -0.9468,1.3411 -8.0073,6.71717 -15.6902,11.94684 -9.6238,6.55076 -20.0791,15.593 -33.6119,29.06898 -19.2264,19.14563 -23.114,23.45886 -37.2707,41.35103 -3.8284,4.83873 -7.5784,9.52239 -8.3333,10.40809 -0.7548,0.88572 -1.3724,2.50591 -1.3724,3.60042 0,1.09452 -0.7957,2.46984 -1.7684,3.05628 -2.0588,1.24138 -13.9713,16.73854 -16.8983,21.9833 -1.1,1.97106 -5.9377,9.47106 -10.7506,16.66667 -4.8128,7.19563 -9.9128,14.95728 -11.3334,17.24813 -1.4204,2.29086 -4.3826,6.75464 -6.5826,9.91952 -5.7691,8.29926 -11.9648,19.12207 -17.5075,30.58196 -2.6601,5.5 -5.6592,10.47982 -6.6645,11.06626 -1.0055,0.58644 -1.828,1.99386 -1.828,3.12761 0,1.13375 -0.8208,3.65393 -1.8242,5.60041 -4.2258,8.19892 -10.1758,21.4045 -10.1758,22.5846 0,2.25916 -5.2746,17.95682 -10.1768,30.28779 -6.9527,17.48804 -8.0035,20.54925 -9.8406,28.66667 -0.9128,4.03333 -2.2338,8.05705 -2.9358,8.9416 -0.702,0.88453 -0.9472,2.14084 -0.545,2.79178 0.4023,0.65095 0.2271,3.22723 -0.3896,5.72508 -3.987,16.15219 -5.8522,29.2082 -4.1726,29.2082 0.7665,0 4.9801,-3.58638 9.3634,-7.96976 8.545,-8.54494 11.1818,-9.10229 13.5532,-2.86484 1.089,2.86402 0.8388,3.85698 -1.4354,5.69855 -1.5148,1.22659 -2.7542,2.7826 -2.7542,3.4578 0,0.6752 -1.4392,1.99791 -3.1984,2.93936 -5.1932,2.77931 -9.941,15.95305 -11.441,31.74548 -0.7144,7.52029 -2.2128,15.44049 -3.3298,17.60045 -2.5956,5.01947 -2.6114,12.58452 -0.031,14.7263 1.1,0.91292 2.0037,2.63638 2.0082,3.82992 0,1.19354 0.9044,3.88866 2,5.98916 1.0955,2.10049 1.9918,4.65862 1.9918,5.68476 0,1.02612 0.5789,2.90753 1.2865,4.18092 1.4375,2.58674 5.3763,11.87826 8.0467,18.9819 3.7797,10.05439 21.306,35.97996 24.3334,35.99503 0.55,0.003 1,0.9238 1,2.04681 0,1.12303 1.0235,2.43459 2.2743,2.91459 3.3468,1.28425 7.0591,4.73649 7.0591,6.56448 0,0.87721 2.1761,2.93984 4.8357,4.58361 2.6597,1.64379 7.2361,5.59272 10.1699,8.77542 2.9337,3.1827 6.1076,5.78673 7.053,5.78673 0.9455,0 1.9191,0.46029 2.1636,1.02287 0.8022,1.84616 13.5934,10.53326 23.1111,15.69581 16.0448,8.70291 26.446,15.49759 32.6667,21.33965 3.3,3.09919 8.1492,7.05391 10.7761,8.78827 2.6269,1.73437 8.148,5.4034 12.2693,8.1534 4.1212,2.75 7.9719,5.00375 8.5572,5.00832 0.5852,0.004 8.7836,3.89047 18.2188,8.63529 9.4352,4.74484 19.1638,9.00386 21.6192,9.4645 2.4554,0.46062 5.1592,1.67474 6.0084,2.69804 0.8494,1.02328 2.7183,1.86052 4.1535,1.86052 1.4351,0 6.4019,1.51726 11.0373,3.3717 4.6354,1.85444 11.9032,4.27694 16.151,5.38332 4.2477,1.10638 8.3574,2.50639 9.1328,3.11112 0.7753,0.60474 7.4097,3.0612 14.743,5.45882 21.9948,7.19113 28.7122,9.66997 29.453,10.86862 0.3874,0.62687 1.869,1.13975 3.2924,1.13975 1.4234,0 2.588,0.52367 2.588,1.16369 0,0.64003 2.85,1.44475 6.3333,1.78827 3.4833,0.34351 8.9265,1.88628 12.096,3.42837 3.1696,1.54211 9.1696,3.48303 13.3333,4.31318 4.1639,0.83014 11.7707,2.87968 16.904,4.5545 11.0103,3.59224 27.5196,8.21759 33.7566,9.4574 2.4326,0.48359 6.0326,1.71902 8,2.74538 1.9672,1.02636 4.5444,1.86981 5.7269,1.87433 1.1827,0.004 6.9067,1.19205 12.7203,2.63896 5.8136,1.44691 14.299,2.91343 18.8568,3.25892 4.5576,0.34549 8.962,1.04556 9.7873,1.55569 0.8255,0.51014 3.6724,1.09583 6.3265,1.30154 2.654,0.20572 15.3256,1.3142 28.159,2.4633 12.8333,1.1491 31.4333,2.14946 41.3333,2.22302 9.9,0.0736 21,0.59456 24.6667,1.15778 3.6666,0.56322 19.2666,0.72679 34.6666,0.36347 15.4,-0.36332 40.3,-0.78385 55.3334,-0.93453 z m 502.8707,-195.17634 c -1.5788,-1.36934 -2.9006,-3.31934 -2.9371,-4.33333 -0.036,-1.01397 -3.0993,-4.2436 -6.8064,-7.17693 -3.7069,-2.93334 -9.5512,-7.75375 -12.9872,-10.71203 -3.436,-2.95828 -8.9893,-6.42589 -12.3407,-7.70583 l -6.0936,-2.32714 0.9978,-5.45651 c 0.5488,-3.00108 1.815,-5.97427 2.8138,-6.60708 2.3344,-1.479 6.4827,-1.52513 6.4827,-0.0721 0,1.41294 6.0433,4.21402 9.0917,4.21402 3.2472,0 28.2416,24.70066 28.2416,27.9096 0,0.6154 0.8963,2.8375 1.9918,4.93799 2.7409,5.25535 2.5346,6.48453 -1.3879,8.27172 -4.2311,1.92785 -3.6711,2.00253 -7.0665,-0.94237 z m -113.888,-94.85116 c -2.7595,-1.22472 -6.3982,-3.52404 -8.0859,-5.1096 -1.6877,-1.58556 -4.3445,-2.88284 -5.904,-2.88284 -1.5595,0 -3.1961,-0.58369 -3.6371,-1.2971 -0.688,-1.11314 -9.2645,-4.11403 -13.3557,-4.6731 -0.7333,-0.10026 -2.3907,-0.66493 -3.6831,-1.25493 -1.2922,-0.59 -4.168,-0.80584 -6.3905,-0.47965 -3.2813,0.48158 -3.8807,0.19626 -3.1881,-1.51774 0.4689,-1.16094 0.9957,-2.96821 1.1704,-4.01614 0.6672,-4.00126 4.8266,-4.28386 18.0913,-1.22914 6.1875,1.42491 7.9101,2.02728 16.2015,5.66519 2.6776,1.17477 5.4353,2.13595 6.1285,2.13595 2.8149,0 9.67,4.3226 9.67,6.09765 0,1.04629 0.6,1.90235 1.3333,1.90235 0.7334,0 1.3334,1.73002 1.3334,3.84449 0,4.89159 -3.0239,5.77047 -9.684,2.81461 z m -119.6494,-55.99244 c -1.1,-0.71088 -4.8842,-1.30169 -8.4096,-1.31292 -6.6861,-0.0213 -17.9356,-2.3091 -20.2893,-4.12625 -2.2635,-1.74748 -28.6052,-6.73293 -39.3011,-7.43815 -11.955,-0.78825 -12.9489,-0.9506 -17.6666,-2.88588 -4.6172,-1.89404 -4.5904,-2.85284 0.2076,-7.44961 3.8149,-3.65503 4.0626,-3.69984 16.2174,-2.9332 16.2687,1.02612 25.3094,2.106 28.575,3.41321 1.4666,0.5871 4.3449,1.74215 6.3961,2.56679 2.0511,0.82464 5.9403,1.49935 8.6427,1.49935 4.7549,0 22.83,5.16709 29.6278,8.46969 4.1395,2.01108 5.1662,7.38007 1.8718,9.78893 -2.824,2.06504 -3.2608,2.09539 -5.8718,0.40804 z m -856.5273,-10.51269 c -2.9393,-3.24796 -2.7124,-4.47639 1.5274,-8.26475 5.7348,-5.12434 10.8681,-8.39332 21.6666,-13.79762 5.5,-2.75258 10.6,-5.4897 11.3334,-6.08251 0.7333,-0.59281 6.5673,-2.6688 12.9645,-4.61332 6.3971,-1.94451 11.9825,-4.10404 12.412,-4.79896 1.3861,-2.24276 7.1449,-1.35943 8.5765,1.31553 0.7592,1.41846 1.3803,3.14539 1.3803,3.83763 0,1.79855 -13.5852,10.91669 -16.2648,10.91669 -1.2331,0 -7.4464,2.7 -13.8075,6 -6.3612,3.3 -12.2578,6 -13.1038,6 -0.846,0 -3.7324,1.49098 -6.4142,3.31327 -2.6817,1.82229 -7.8582,4.48883 -11.5034,5.92563 -6.3382,2.49825 -6.7211,2.5091 -8.767,0.24841 z M 4164,403.6907 c 0,-0.6884 -2.85,-1.61984 -6.3334,-2.06986 -3.4833,-0.45003 -8.233,-1.65314 -10.555,-2.67358 -4.5775,-2.01166 -34.004,-3.05693 -38.1116,-1.35377 -1.2834,0.53212 -2.3334,0.41868 -2.3334,-0.25208 0,-0.67077 -2.85,-1.31452 -6.3333,-1.43057 -5.4295,-0.18088 -8.0893,-0.45923 -14,-1.465 -1.8367,-0.31254 -1.0277,-2.83683 0.9092,-2.83683 1.0501,0 3.1539,-1.74803 4.6752,-3.88449 l 2.766,-3.8845 28.9915,0.37947 c 24.2313,0.31716 30.7428,0.83561 39.6581,3.15764 5.8667,1.52799 14.056,3.14085 18.1985,3.58412 8.25,0.88281 10.1332,3.18164 7.7471,9.45752 -1.3216,3.47621 -3.9509,4.04221 -7.7515,1.66871 -2.8102,-1.75507 -12.7064,-0.38607 -11.4858,1.5889 0.4304,0.69628 -0.753,1.26596 -2.6296,1.26596 -1.8766,0 -3.412,-0.56324 -3.412,-1.25164 z m -494.3334,-6.35189 c -2.3038,-0.85524 -2.0926,-3.94771 0.3334,-4.87864 2.1506,-0.82528 2.7996,-4.85116 0.782,-4.85116 -0.6754,0 -0.7852,-1.63359 -0.2466,-3.66667 0.8054,-3.03992 2.438,-4.17678 9.5514,-6.65098 4.7189,-1.64138 10.1944,-2.99138 12.1678,-3 1.9734,-0.008 3.92,-0.55304 4.326,-1.20983 0.4059,-0.65677 5.9914,-1.87647 12.412,-2.71044 6.4207,-0.83396 14.074,-2.04803 17.0074,-2.69791 7.7285,-1.71226 12.2736,-0.49402 13.036,3.49404 0.5538,2.89715 -0.229,3.69026 -6.4508,6.53619 -3.8946,1.78141 -8.689,3.23893 -10.6542,3.23893 -5.5772,0 -16.3714,3.8182 -35.931,12.70966 -7.1063,3.23042 -13.6088,4.69818 -16.3334,3.68681 z m 299.5095,-28.29832 c -6.3199,-0.44699 -12.3199,-1.49509 -13.3333,-2.32912 -2.3551,-1.93796 -23.5298,-3.25552 -59.8428,-3.72364 -15.7667,-0.20325 -29.3467,-0.44661 -30.1779,-0.5408 -0.8312,-0.0941 -1.8113,-1.74111 -2.1781,-3.65981 -0.9351,-4.89142 3.0284,-8.50591 9.356,-8.53227 2.75,-0.012 8.3108,-0.80032 12.3573,-1.75304 5.2683,-1.24036 16.2472,-1.605 38.6667,-1.28421 49.6154,0.70993 49.6693,0.71408 53.3016,4.09805 1.7474,1.62801 3.6641,2.96003 4.2592,2.96003 0.595,0 1.0818,1.2 1.0818,2.66666 0,1.46667 0.6,2.74167 1.3334,2.83334 0.7333,0.0917 1.982,0.24166 2.7746,0.33333 1.9975,0.23096 5.0826,6.32083 4.272,8.43283 -0.7021,1.82965 -2.479,1.87017 -21.8705,0.49865 z M 112.90932,1091.4649 c -0.40427,-1.5459 -0.42762,-13.9959 -0.0519,-27.6666 0.79608,-28.966 0.8303,-26.4706 -0.51458,-37.5226 l -1.05462,-8.6667 -7.97745,0.3578 c -5.71012,0.2561 -8.4674,1.014 -9.70132,2.6667 -2.30784,3.091 -8.26659,3.3973 -11.3752,0.5847 -2.1756,-1.9684 -6.144,-2.3086 -29.37484,-2.518 -14.77268,-0.1332 -27.75942,-0.2717 -28.85942,-0.3078 -1.1,-0.036 -6.2,0.4213 -11.33333,1.0163 C 1.33425,1020.7224 0,1020.3331 0,1015.7133 c 0,-2.8 1.02747,-4.1004 4.57741,-5.7932 3.63857,-1.7351 4.66408,-3.0785 5,-6.5499 0.64688,-6.68482 4.49238,-8.06092 20.18974,-7.22492 7.20527,0.3838 19.80527,0.059 28,-0.7222 8.19474,-0.7809 23.74014,-1.5086 34.54534,-1.617 l 19.64582,-0.1971 0.66494,-55.3333 c 1.32208,-110.018 2.43489,-148.37419 4.54532,-156.66667 1.6773,-6.59057 0.24594,-87.56253 -1.96806,-111.33333 -1.127,-12.1 -2.22936,-24.7 -2.44971,-28 -0.22035,-3.3 -1.05247,-11.4 -1.84915,-18 -0.79668,-6.6 -1.8446,-21.6 -2.3287,-33.33334 -0.48411,-11.73333 -1.13375,-21.76273 -1.44365,-22.28757 -0.30989,-0.52483 -0.84685,-23.02483 -1.19323,-50 -0.34638,-26.97516 -0.93523,-54.74576 -1.30857,-61.71243 -2.5345,-47.29538 -3.09336,-55.93236 -3.68219,-56.90665 -0.36344,-0.60133 -1.08248,-17.29335 -1.59788,-37.09335 -0.5154,-19.8 -1.24222,-36.49432 -1.61515,-37.09848 -0.37293,-0.60417 -0.90962,-6.60417 -1.19265,-13.33333 -0.28302,-6.72917 -0.85409,-17.03485 -1.26904,-22.90152 -0.41495,-5.86667 -0.99044,-15.16667 -1.27886,-20.66667 -0.28843,-5.5 -0.61406,-10 -0.72363,-10 -0.10957,0 -0.34774,-6 -0.52927,-13.33333 -0.18153,-7.33333 -1.07766,-21.0382 -1.9914,-30.45525 -0.91374,-9.41706 -1.33083,-18.38584 -0.92686,-19.93062 0.40397,-1.54478 0.16008,-3.50082 -0.54197,-4.34674 -0.70206,-0.84594 -1.40569,-10.67131 -1.56362,-21.83418 -0.15794,-11.16286 -0.69279,-20.54681 -1.18856,-20.85322 -1.13605,-0.70212 -5.19309,5.38242 -5.19309,7.78836 0,0.98752 -1.2,3.08353 -2.66666,4.65782 C 77.2,162.20946 76,163.97873 76,164.56688 c 0,0.58816 -1.52428,2.71325 -3.38729,4.72242 -4.05714,4.37544 -9.94604,5.00604 -9.94604,1.06507 0,-1.42339 -0.5735,-2.94243 -1.27445,-3.37563 -1.65518,-1.02296 -1.002,-17.93584 0.73867,-19.12622 3.05225,-2.08734 6.93888,-9.2791 7.79916,-14.43144 0.5378,-3.22095 2.27206,-6.78971 4.16258,-8.56576 2.13024,-2.00126 3.2407,-4.51504 3.2407,-7.33608 0,-2.52887 0.79809,-4.59785 1.94307,-5.03722 2.2165,-0.85055 8.54154,-10.25006 10.90543,-16.206336 4.69424,-11.82804 5.82961,-15.86348 5.10527,-18.14566 -0.46146,-1.45395 -0.16444,-2.52101 0.70174,-2.52101 0.82603,0 1.13181,-0.59877 0.67952,-1.3306 -1.24245,-2.01032 3.58748,-9.33607 6.15535,-9.33607 2.28104,0 5.17629,6.10863 5.17629,10.92139 0,1.38789 1.2,3.8115 2.66666,5.38578 1.46667,1.57428 2.67037,4.39919 2.67488,6.27758 0.008,3.3719 0.78674,5.1962 6.47011,15.159256 4.76178,8.3475 9.20509,20.30977 11.61483,31.26938 1.248,5.67597 3.3392,12.71995 4.64708,15.65328 3.24474,7.27729 4.3208,11.33333 3.00668,11.33333 -0.6047,0 -0.89098,2.62136 -0.63616,5.82526 0.42529,5.34736 0.17494,5.89761 -3.05171,6.70745 -4.38954,1.10171 -6.05904,0.12043 -6.05904,-3.56131 0,-1.57917 -1.51632,-4.09376 -3.36961,-5.58798 -1.97576,-1.59296 -5.51807,-7.94211 -8.56352,-15.34904 -2.85666,-6.94775 -5.69034,-12.79859 -6.29707,-13.00187 -0.60672,-0.20327 -0.65635,11.48127 -0.11028,25.96563 1.89124,50.16417 2.71075,62.24986 5.71864,84.3352 1.04869,7.7 1.84162,17.3 1.76206,21.33333 -0.0796,4.03333 -0.0904,15.89083 -0.024,26.35 0.0663,10.45916 -0.22185,19.90916 -0.64044,21 -0.41859,1.09083 -0.20187,1.98333 0.48161,1.98333 0.68348,0 1.31805,1.95 1.41015,4.33334 0.0921,2.38333 1.01118,19.93333 2.04238,39 2.48372,45.92344 4.16312,97.59545 3.59678,110.66666 -0.0635,1.46667 -0.10521,6.26667 -0.0926,10.66667 0.0127,4.4 -0.22907,11.15 -0.53708,15 -0.30801,3.85 -0.14384,7.00081 0.36482,7.0018 0.50866,10e-4 1.09094,11.851 1.29396,26.33333 0.44493,31.73902 1.41594,54.26114 3.52085,81.66487 1.72457,22.45207 2.67581,38.2044 2.51615,41.66667 -0.093,2.01666 -0.17594,5.91666 -0.18432,8.66666 -0.008,2.75 -0.064,6.8 -0.12367,9 -0.0596,2.2 0.60176,5.36212 1.46976,7.02695 1.08627,2.0834 1.14867,3.45648 0.20019,4.40496 -0.86797,0.86797 -0.99046,3.69565 -0.33092,7.63972 2.37713,14.21552 3.48505,48.13129 2.73079,83.59504 -0.20276,9.53333 -0.28467,17.63333 -0.182,18 0.10266,0.36667 0.42829,14.88877 0.72364,32.27133 0.36518,21.493 -0.1136,39.07342 -1.49648,54.94868 -1.35776,15.58696 -1.61958,24.84306 -0.78788,27.85516 0.76904,2.7852 0.77082,5.3595 0.005,6.7286 -0.68251,1.2195 -0.90307,2.764 -0.49015,3.4321 1.57835,2.5538 2.36579,59.7512 0.83562,60.6969 -0.81706,0.505 -1.04122,1.6267 -0.49815,2.4927 0.54308,0.866 1.00287,4.2745 1.02176,7.5745 l 0.0344,6 18,-0.1639 c 9.9,-0.09 25.5,-1.1155 34.66667,-2.2785 9.16666,-1.1631 31.06666,-2.4721 48.66666,-2.9091 44.58671,-1.1071 59.19389,-1.7382 60.61934,-2.6192 0.67603,-0.4178 10.11322,-1.676 20.97156,-2.7959 14.32795,-1.4777 31.07836,-1.9305 61.07576,-1.6509 26.47572,0.2467 46.12611,-0.1938 54.66667,-1.2255 7.33333,-0.8859 16.03333,-1.8718 19.33333,-2.1908 3.3,-0.3191 9.43971,-1.2655 13.64379,-2.1032 4.20408,-0.8376 13.50407,-1.7005 20.66666,-1.9175 32.26944,-0.9775 80.23093,-3.6065 85.68954,-4.697 3.3,-0.6593 16.86744,-1.2095 30.14987,-1.2228 13.44248,-0.014 26.59031,-0.6812 29.65415,-1.5062 7.39133,-1.9903 33.15758,-2.9456 45.52931,-1.6881 5.5,0.5591 12.7,0.6292 16,0.1559 3.3,-0.4732 12.77399,-1.2134 21.0533,-1.6448 8.27932,-0.4314 15.51714,-1.071 16.08406,-1.4214 0.56692,-0.3503 6.09294,-0.7423 12.28003,-0.8709 6.18711,-0.1287 16.94928,-1.0197 23.91594,-1.9801 10.94374,-1.5086 31.53446,-2.8388 80,-5.1683 6.23334,-0.2996 18.83333,-1.212 28,-2.0276 30.22205,-2.6889 121.44412,-8.3868 152.66664,-9.5359 37.7145,-1.3881 56.5036,-2.8742 60,-4.7459 1.4667,-0.7851 6.9354,-1.8062 12.1526,-2.2691 5.2173,-0.4629 11.7799,-1.8001 14.5836,-2.9716 2.8037,-1.1714 7.835,-2.3146 11.1807,-2.5404 3.3457,-0.2258 6.6531,-0.4707 7.3498,-0.5443 2.6611,-0.2808 -1.4965,-2.6487 -9.2667,-5.2775 -20.9664,-7.0937 -25.1804,-8.9855 -27.7566,-12.4612 -2.2146,-2.9879 -2.3792,-3.9581 -0.9611,-5.6667 2.3145,-2.7889 6.4463,-2.5923 12.7177,0.6051 2.8768,1.4667 6.7837,2.6667 8.682,2.6667 1.8982,0 4.0214,0.5539 4.718,1.2308 0.6967,0.677 5.1667,1.9601 9.9334,2.8513 4.7666,0.8913 13.7666,3.3038 20,5.3612 6.2333,2.0574 13.5833,4.1411 16.3333,4.6304 2.75,0.4894 5,1.4583 5,2.1533 0,0.695 0.477,0.9689 1.06,0.6086 0.5829,-0.3603 7.5937,0.069 15.5794,0.954 14.0573,1.5579 14.5499,1.7227 15.4737,5.1769 1.2254,4.5819 -1.9995,6.819 -17.4464,12.1025 -6.2334,2.1321 -11.9034,4.4138 -12.6,5.0704 -0.6967,0.6567 -2.1101,1.1939 -3.1409,1.1939 -1.0308,0 -3.6568,1.5 -5.8356,3.3333 -2.1788,1.8334 -4.8154,3.3334 -5.8592,3.3334 -1.0437,0 -1.8977,0.6084 -1.8977,1.3521 0,1.5322 -8.0854,9.2156 -9.7607,9.2754 -0.9618,0.034 -11.6794,8.4349 -16.6356,13.0391 -0.9868,0.9167 -2.3084,1.6667 -2.937,1.6667 -0.6286,0 -1.9551,0.8123 -2.948,1.8051 -0.9928,0.9928 -4.5067,2.2102 -7.8086,2.7054 -5.4987,0.8246 -6.3283,0.5613 -9.8644,-3.1295 l -3.8607,-4.0297 3.0392,-3.2351 c 1.6716,-1.7793 4.93,-3.9923 7.2409,-4.9176 2.3109,-0.9254 6.0158,-3.2237 8.2331,-5.1073 2.2174,-1.8835 5.5174,-4.4786 7.3334,-5.7668 3.1827,-2.2576 2.3643,-2.3163 -22.6982,-1.6282 -25.2715,0.6939 -58.4945,2.5821 -70.6667,4.0163 -3.3,0.3888 -8.7,0.9375 -12,1.2194 -3.3,0.2819 -9.6,0.8786 -14,1.3261 -4.4,0.4474 -19.10001,1.0299 -32.66668,1.2944 -36.65063,0.7146 -91.5329,3.3377 -100.77587,4.8166 -4.46008,0.7137 -13.16008,1.3096 -19.33334,1.3244 -6.17326,0.015 -15.12411,0.6065 -19.89078,1.3151 -4.76667,0.7086 -14.96667,1.6129 -22.66667,2.0095 -7.7,0.3966 -17.3,1.2901 -21.33333,1.9855 -4.03333,0.6955 -11.67292,1.2373 -16.97687,1.2041 -5.30394,-0.033 -10.14206,0.2478 -10.75136,0.6243 -1.86753,1.1538 -40.02632,4.8347 -50.12033,4.8347 -5.2267,0 -11.49904,0.5724 -13.93855,1.272 -2.4395,0.6997 -15.03554,1.361 -27.9912,1.4697 -12.95565,0.1087 -33.45573,0.7567 -45.55573,1.4401 -12.1,0.6834 -44.8,1.764 -72.66666,2.4014 -40.34487,0.9227 -51.90775,1.5866 -56.75875,3.2588 -4.63217,1.5967 -11.18229,2.0668 -27.33333,1.9616 -11.68269,-0.076 -34.14125,0.6276 -49.90792,1.56368 -31.77381,1.88624 -29.16045,1.80544 -46.66666,1.4436 -15.20759,-0.3142 -67.57048,3.46814 -71.33333,5.15274 -1.46667,0.6566 -10.16667,1.5507 -19.33334,1.9869 -20.45132,0.9731 -24.14016,1.3359 -33.6448,3.309 -4.12861,0.8571 -10.54769,1.5819 -14.26462,1.6107 -3.71693,0.029 -7.01812,0.4732 -7.33597,0.9875 -0.31786,0.5143 -4.96767,1.0542 -10.33292,1.1999 -5.36526,0.1457 -13.35502,0.8995 -17.75502,1.6751 -4.4,0.7757 -21.44394,1.8282 -37.87545,2.3388 -28.4206,0.8832 -29.90222,1.0583 -30.42542,3.5951 -0.77843,3.7744 -1.33971,14.9022 -2.21932,44 -0.86965,28.7685 -0.8285,28.6667 -11.57913,28.6667 -5.24188,0 -6.37551,-0.4558 -6.99135,-2.8108 z M 2340,1022.2333 c -3.3,-0.671 -28.5,-1.2127 -56,-1.2039 -27.5,0.01 -61.4,0.019 -75.3333,0.023 -44.1876,0.012 -89.5116,-0.9838 -91.1589,-2.0019 -1.8582,-1.1484 -11.0404,-1.8338 -36.8411,-2.7501 -10.2667,-0.3646 -22.2667,-1.014 -26.6667,-1.4431 -8.5808,-0.8368 -27.7004,-6.0175 -35.3333,-9.5741 -8.7512,-4.0776 -13.9984,-5.63804 -32.6667,-9.71412 -33.5566,-7.3268 -52.5178,-12.4407 -59.6084,-16.0763 -1.2513,-0.6417 -4.7013,-1.5546 -7.6666,-2.0288 -2.9654,-0.4742 -5.3916,-1.3088 -5.3916,-1.8547 0,-0.5459 -2.4263,-1.3805 -5.3916,-1.8546 -2.9654,-0.4742 -6.4154,-1.4259 -7.6667,-2.1148 -1.2513,-0.689 -8.2751,-3.3117 -15.6084,-5.8282 -23.7052,-8.1348 -26.4863,-9.1714 -38.6667,-14.4124 -6.6,-2.8399 -13.05,-5.1544 -14.3333,-5.1433 -1.2833,0.011 -2.3333,-0.5335 -2.3333,-1.2099 0,-0.6765 -2.25,-1.9598 -5,-2.8518 -2.75,-0.892 -6.5,-2.6617 -8.3334,-3.9327 -1.8333,-1.271 -11.4333,-6.2877 -21.3333,-11.1483 -21.1912,-10.4041 -32.8836,-16.6131 -37.3564,-19.8373 -1.7803,-1.2833 -4.1535,-2.3577 -5.2736,-2.3875 -1.1201,-0.03 -4.114,-1.8298 -6.6529,-4 -2.539,-2.1702 -5.296,-3.9458 -6.1267,-3.9458 -0.8308,0 -2.5964,-1.2 -3.9237,-2.6667 -1.3274,-1.467 -3.1799,-2.667 -4.1168,-2.667 -0.937,0 -2.0839,-1.1986 -2.549,-2.66354 -0.4649,-1.46496 -2.4478,-3.06578 -4.4065,-3.55736 -1.9585,-0.49159 -6.5687,-3.68866 -10.2444,-7.10462 -3.6759,-3.41594 -8.7833,-7.0222 -11.35,-8.0139 -2.5667,-0.9917 -6.7667,-3.38802 -9.3333,-5.32515 -2.5667,-1.93715 -7.0667,-4.93889 -10,-6.67057 -9.5191,-5.6195 -35.3131,-29.83562 -50.4156,-47.3315 -4.4312,-5.13333 -8.767,-9.93333 -9.635,-10.66666 -0.8681,-0.73334 -3.3981,-4.03334 -5.6222,-7.33334 -2.2242,-3.3 -5.6675,-7.5 -7.6518,-9.33333 -1.9842,-1.83333 -5.7064,-6.48333 -8.2713,-10.33332 -2.5648,-3.85 -7.2081,-9.85 -10.3183,-13.33333 -5.5304,-6.19387 -16.7525,-23.63971 -16.7525,-26.04334 0,-0.66642 -1.1061,-2.80432 -2.4583,-4.75085 -1.352,-1.94653 -4.488,-8.03916 -6.969,-13.53916 -2.481,-5.5 -6.4007,-12.7 -8.7106,-16 -2.3097,-3.3 -5.2438,-8.1 -6.5201,-10.66667 -1.2763,-2.56666 -3.5665,-6.02892 -5.0893,-7.6939 -2.5064,-2.74054 -2.6063,-3.47643 -1.0536,-7.77027 1.5365,-4.24905 1.3381,-5.94731 -1.905,-16.30609 -1.9909,-6.3597 -4.5244,-13.61754 -5.6297,-16.12855 -4.5651,-10.36997 -6.5449,-40.11465 -3.6913,-55.45701 0.8206,-4.41238 1.3158,-10.65522 1.1004,-13.87299 -0.3604,-5.38235 3.1212,-24.07364 8.4638,-45.43785 2.1918,-8.76466 12.889,-42.41838 15.0454,-47.33334 0.6436,-1.46666 1.9189,-5.57129 2.8342,-9.12138 0.9154,-3.5501 2.471,-6.76428 3.457,-7.14266 0.9861,-0.37836 1.7928,-1.74882 1.7928,-3.04549 0,-2.44164 8.876,-22.82427 10.4581,-24.01599 0.4925,-0.37096 2.6437,-3.97448 4.7804,-8.00781 2.1368,-4.03333 4.2769,-7.63333 4.756,-8 0.4791,-0.36667 2.3145,-3.36667 4.0788,-6.66667 1.7644,-3.3 4.8696,-8.18634 6.9007,-10.85853 2.0309,-2.6722 3.6926,-5.46191 3.6926,-6.19936 0,-0.73744 2.0046,-4.31943 4.4544,-7.95997 2.4499,-3.64055 4.8735,-7.45084 5.3856,-8.46732 3.6502,-7.24387 12.8382,-20.3277 18.5102,-26.35852 3.1845,-3.38596 7.6378,-8.8563 9.8964,-12.1563 2.2584,-3.3 12.7269,-14.78088 23.2632,-25.51308 10.5362,-10.73218 21.3082,-21.83218 23.9377,-24.66666 7.7344,-8.33742 19.9641,-18.79892 28.5525,-24.42426 4.4,-2.88198 9.8,-6.74528 12,-8.5851 9.4364,-7.89146 60.7487,-42.2298 70.9092,-47.45263 3.0667,-1.5764 6.2902,-3.72689 7.1632,-4.77888 0.8731,-1.052 2.4331,-1.91272 3.4666,-1.91272 1.0334,0 5.91,-2.22691 10.8368,-4.94867 19.712,-10.88994 22.5416,-12.42072 28.9576,-15.6652 3.6666,-1.8542 9.7228,-5.08008 13.458,-7.16862 3.7352,-2.08855 7.9352,-4.15214 9.3333,-4.58575 1.3981,-0.43361 5.242,-1.78633 8.542,-3.00605 3.3,-1.21972 7.372,-2.47522 9.0491,-2.78999 1.6769,-0.31477 8.2304,-2.99965 14.5632,-5.9664 6.3328,-2.96673 16.8154,-7.51584 23.2946,-10.10911 6.4792,-2.59326 12.1112,-5.2502 12.5155,-5.90429 0.4043,-0.65409 1.6396,-1.18925 2.7452,-1.18925 1.1057,0 3.9203,-1.35151 6.2547,-3.00335 6.1378,-4.34317 9.1457,-6.15157 12.911,-7.76228 6.3523,-2.71738 26.0976,-5.11731 46.6667,-5.67209 15.5416,-0.41918 24.8483,-1.43385 37.5284,-4.09157 9.2739,-1.94378 18.5739,-3.48532 20.6667,-3.42563 2.0926,0.0597 6.8049,-0.56697 10.4716,-1.39254 7.4021,-1.66665 100.7825,-2.48565 115.3333,-1.01155 4.7667,0.4829 14.0667,1.23925 20.6667,1.68078 6.6,0.44153 15.0092,1.38807 18.687,2.10341 3.6779,0.71534 10.8779,1.22131 16,1.12437 10.6492,-0.20153 40.6463,2.78046 40.6463,4.04063 0,0.46112 1.05,0.91073 2.3333,0.99915 17.3363,1.19447 22.3646,1.77801 30.3334,3.52024 5.1333,1.12232 16.8333,3.31025 26,4.86207 9.1666,1.55181 19.6666,3.3662 23.3333,4.03198 3.6666,0.66578 10.2666,1.58462 14.6666,2.04186 4.4,0.45725 9.8706,1.40437 12.1567,2.10472 2.2863,0.70036 6.948,1.3294 10.3596,1.39788 3.4115,0.0684 6.5324,0.65796 6.9353,1.30996 0.403,0.652 1.2522,0.86438 1.8871,0.47196 0.6351,-0.39243 3.7807,-0.12494 6.9904,0.59434 13.9761,3.13211 30.8904,5.58782 47.0043,6.82435 20.9345,1.60645 23.4698,1.90512 44.6666,5.26171 26.7542,4.23662 28.8868,4.69968 42.6667,9.26433 16.6424,5.51287 25.5771,8.13693 29.3333,8.61505 1.8334,0.23335 4.2334,0.75907 5.3334,1.16826 1.1,0.40918 3.8,1.03862 6,1.39876 2.2,0.36013 13,3.06996 24,6.02184 11,2.95188 21.5,5.76141 23.3333,6.24341 1.8333,0.48201 5.3029,1.75419 7.7103,2.82707 2.4073,1.07286 5.7073,2.10972 7.3333,2.30412 3.5251,0.42141 7.0293,1.68086 11.8288,4.25134 1.9465,1.04248 4.1995,1.89542 5.0065,1.89542 0.8071,0 4.556,1.48998 8.331,3.31106 3.775,1.8211 9.022,3.7034 11.6601,4.18291 2.6381,0.47951 7.1967,1.90736 10.13,3.17301 8.7791,3.78795 15.7989,6.46064 19.3333,7.36086 6.5767,1.67506 22.0088,7.7654 22.4444,8.85768 0.2446,0.61296 1.4399,1.11448 2.6566,1.11448 1.2165,0 7.6165,2.63109 14.2221,5.84686 6.6056,3.21579 19.2103,9.29107 28.0103,13.50063 8.8,4.20957 16.3,8.03168 16.6666,8.49357 0.3667,0.46191 2.9822,1.64914 5.8122,2.6383 2.83,0.98916 7.2637,3.23596 9.8528,4.99288 2.5889,1.75693 5.1933,3.19442 5.7876,3.19442 0.5942,0 3.7476,1.8 7.0073,4 3.2597,2.2 6.8164,4 7.9036,4 1.0872,0 2.7236,0.9 3.6365,2 0.913,1.1 2.2292,2 2.9252,2 0.6959,0 2.1495,0.88415 3.23,1.96476 1.0807,1.08063 4.4879,2.63644 7.5715,3.45738 3.0837,0.82093 6.5067,2.26356 7.6067,3.20584 1.1,0.94228 6.03,3.8675 10.9554,6.5005 4.9255,2.633 11.8255,6.91355 15.3334,9.51234 3.5078,2.5988 9.0054,6.36774 12.217,8.37546 5.1171,3.19892 15.1378,10.54154 31.932,23.39803 8.7267,6.68051 10.1499,7.65717 15.5622,10.67952 3.2954,1.84029 5.4961,4.11076 5.7594,5.94221 0.2343,1.63018 1.2972,2.96396 2.3619,2.96396 1.0647,0 2.6193,1.5 3.4547,3.33334 0.8352,1.83333 2.0424,3.33333 2.6824,3.33333 0.6401,0 3.2374,1.95 5.7717,4.33333 2.5344,2.38334 8.1724,7.33334 12.5288,11 4.3564,3.66667 9.0128,8.91514 10.3476,11.66327 1.3347,2.74813 3.4461,5.32883 4.6919,5.73487 1.2458,0.40605 2.6324,1.89522 3.0812,3.30928 0.4488,1.41406 2.4644,3.54473 4.479,4.73484 2.0147,1.1901 7.086,6.75246 11.2695,12.36078 4.1835,5.60834 9.3985,11.94696 11.5891,14.08586 2.1905,2.13888 3.9828,4.63888 3.9828,5.55554 0,0.91667 0.45,1.86667 1,2.11112 3.7785,1.67932 24.3333,39.24131 24.3333,44.46679 0,1.94636 4.6323,10.97873 6.7923,13.24432 0.6642,0.69667 1.2077,2.28248 1.2077,3.52401 0,1.24155 0.9,2.60271 2,3.02483 1.1,0.42211 2,1.67127 2,2.77592 0,1.10465 1.8,5.93851 4,10.74191 2.2,4.8034 3.9913,9.46842 3.9807,10.36672 -0.013,0.8983 1.2454,5.83328 2.7913,10.96661 1.5459,5.13333 3.4124,11.73333 4.1479,14.66667 0.7354,2.93333 2.7668,9.92449 4.5141,15.5359 4.0416,12.9792 5.9543,30.14112 5.2527,47.13076 -0.916,22.18214 -3.335,48.4458 -4.8202,52.33448 -0.7698,2.01604 -1.621,5.16552 -1.8914,6.99886 -1.4874,10.0845 -7.7768,30.31688 -11.4986,36.9892 -9.0341,16.1969 -11.8098,22.04866 -11.8098,24.89805 0,3.7596 -10.2576,19.10713 -17.834,26.68364 -3.2008,3.20076 -7.5183,8.04668 -9.5946,10.76871 -2.0761,2.72202 -8.3041,8.48988 -13.8398,12.81744 -17.8507,13.95481 -23.0306,18.52318 -26.7192,23.56494 -4.0162,5.48952 -17.9091,18.93306 -19.5992,18.96526 -0.594,0.0107 -4.2006,2.8613 -8.0147,6.33333 -3.8141,3.47201 -10.8783,9.31276 -15.698,12.97943 -4.8197,3.66666 -10.9316,8.31666 -13.5819,10.33333 -2.6502,2.01667 -5.6361,3.66667 -6.6353,3.66667 -0.9992,0 -1.8167,0.52505 -1.8167,1.1668 0,0.64173 -1.65,1.9959 -3.6666,3.00925 -7.7668,3.90272 -16.4752,9.55323 -20.4599,13.27552 -2.2855,2.13496 -4.8033,3.88176 -5.5952,3.88176 -0.7919,0 -2.6784,1.14849 -4.1923,2.5522 -3.435,3.18487 -28.8108,16.64577 -36.4822,19.35237 -3.1358,1.1064 -11.0839,4.7304 -17.6627,8.0535 -6.5787,3.3231 -12.8567,6.0419 -13.9512,6.0419 -1.0944,0 -1.9899,0.5898 -1.9899,1.3107 0,1.1902 -7.8118,5.1755 -33.6702,17.1772 -4.9519,2.2983 -9.5534,4.1788 -10.2252,4.1788 -0.672,0 -3.2204,1.0015 -5.6632,2.2256 -7.3167,3.6664 -8.3335,4.0601 -13.1518,5.0922 -2.5426,0.5445 -5.2229,1.4516 -5.9562,2.0155 -0.7334,0.564 -3.4334,1.4586 -6,1.9879 -2.5667,0.5294 -8.8667,2.6593 -14,4.733 -5.1334,2.0737 -13.8334,5.0269 -19.3334,6.5627 -5.5,1.5357 -11.0418,3.3752 -12.3152,4.0877 -1.2734,0.7124 -3.2856,1.2954 -4.4714,1.2954 -3.6948,0 -52.2002,14.8784 -61.2134,18.7764 -2.9333,1.2686 -9.8333,3.3089 -15.3333,4.5341 -5.5,1.2251 -11.2,2.77 -12.6667,3.4331 -2.3298,1.05338 -10.3985,2.98792 -34,8.15192 -3.3,0.722 -9.3,1.8069 -13.3333,2.4107 -4.0333,0.6039 -13.0333,2.3072 -20,3.785 -13.5544,2.8754 -36.9357,6.4078 -50,7.5539 -4.4,0.386 -9.8,1.0157 -12,1.3993 -13.7843,2.4035 -53.7339,3.356 -86,2.0505 -6.2333,-0.2523 -21.8333,-0.1119 -34.6667,0.3119 -12.8333,0.4238 -26.0333,0.2217 -29.3333,-0.4492 z m 67.8673,-12.5423 c 0.4456,-0.2754 13.7078,-1.2029 29.4715,-2.061 15.7636,-0.8582 33.8511,-2.422 40.1941,-3.4752 7.9543,-1.3206 12.5918,-1.5123 14.9447,-0.6177 3.3449,1.2718 24.1851,-1.5712 37.5224,-5.11874 2.9333,-0.78028 13.1333,-2.35198 22.6667,-3.49278 18.2068,-2.1787 25.0994,-3.4733 39.3333,-7.3878 4.7667,-1.3109 14.6667,-3.722 22,-5.358 7.3333,-1.636 16.6333,-4.1042 20.6667,-5.4849 4.0333,-1.3807 11.0234,-3.3674 15.5337,-4.4148 4.5103,-1.0474 10.444,-3.4269 13.1861,-5.2877 2.742,-1.8609 5.9047,-3.3834 7.0279,-3.3834 1.1232,0 3.038,-0.901 4.2548,-2.0023 3.2185,-2.9127 20.1644,-8.5498 27.6019,-9.1819 3.5176,-0.2989 7.2956,-0.8657 8.3956,-1.2596 1.1,-0.3939 6.5,-2.0529 12,-3.6866 5.5,-1.6337 16.6,-5.4942 24.6666,-8.5787 8.0667,-3.0846 17.0667,-6.4169 20,-7.4052 2.9334,-0.9883 6.5168,-2.5669 7.9634,-3.508 1.4465,-0.941 3.5696,-1.711 4.7181,-1.711 1.1484,0 4.3687,-1.1628 7.1563,-2.5839 2.7874,-1.4212 9.3644,-4.0781 14.6152,-5.9042 17.89,-6.2219 39.4804,-16.5493 48.9725,-23.4253 2.9676,-2.1498 7.0799,-4.2786 9.1383,-4.7307 2.0584,-0.4521 4.9985,-1.9921 6.5337,-3.42226 1.5351,-1.43018 3.4372,-2.60031 4.2271,-2.60031 1.5898,0 7.6934,-3.69355 10.4373,-6.31604 0.9691,-0.92619 2.6191,-1.68396 3.6667,-1.68396 1.0476,0 1.9048,-0.6 1.9048,-1.33333 0,-0.73334 0.75,-1.3387 1.6666,-1.34526 1.3636,-0.009 13.9492,-8.93414 20.6104,-14.61474 0.8858,-0.75534 2.2056,-1.37334 2.9332,-1.37334 1.599,0 13.0642,-7.6199 14.1787,-9.42333 0.4356,-0.70479 3.0013,-2.49437 5.7015,-3.97684 2.7002,-1.48247 7.052,-4.32389 9.6705,-6.31428 2.6185,-1.99039 8.6185,-6.49849 13.3333,-10.01801 14.4946,-10.8199 18.572,-14.38711 35.1827,-30.78019 8.8311,-8.71531 19.0571,-18.31531 22.7247,-21.33333 6.4846,-5.33626 15.073,-14.11746 22.847,-23.35996 2.0999,-2.4966 5.768,-6.76932 8.1514,-9.49494 2.3833,-2.72561 4.3333,-5.55946 4.3333,-6.29746 0,-0.73799 0.9439,-2.12514 2.0975,-3.08254 3.5756,-2.96749 7.5994,-12.28098 7.5994,-17.58941 0,-2.78505 0.5022,-5.37407 1.1159,-5.75336 0.6137,-0.37929 2.0963,-2.91413 3.2945,-5.63299 1.1983,-2.71885 5.0495,-10.94336 8.5583,-18.27669 13.7727,-28.78428 17.7224,-43.50783 18.0625,-67.33333 0.1414,-9.9 -0.059,-18.54406 -0.4434,-19.209 -0.3852,-0.66495 -0.9358,-3.94739 -1.2234,-7.2943 -0.2876,-3.34692 -0.983,-6.40286 -1.5453,-6.79101 -0.9805,-0.67685 -5.1484,-20.61915 -6.4871,-31.03903 -0.3533,-2.75 -1.1908,-5 -1.861,-5 -0.6703,0 -0.8587,-1.43454 -0.4186,-3.18788 0.44,-1.75332 0.1515,-3.58873 -0.6413,-4.07868 -0.7927,-0.48994 -1.4413,-2.24852 -1.4413,-3.90794 0,-7.85292 -7.862,-26.16143 -25.547,-59.49216 -7.7408,-14.58907 -12.9385,-21.61491 -26.7864,-36.2078 -1.2833,-1.35238 -2.3333,-2.8702 -2.3333,-3.37294 0,-0.50273 -1.1205,-2.15273 -2.4901,-3.66666 -1.3696,-1.51394 -4.7232,-6.0526 -7.4523,-10.08594 -2.7292,-4.03333 -10.0085,-12.58642 -16.1765,-19.00688 -6.1679,-6.42045 -11.2144,-11.93373 -11.2144,-12.25174 0,-0.31802 -3.45,-4.08176 -7.6667,-8.36388 -4.2167,-4.28212 -10.4785,-10.76883 -13.9153,-14.41491 -12.0118,-12.74336 -21.8626,-21.96259 -23.4671,-21.96259 -0.8897,0 -1.6176,-0.6 -1.6176,-1.33333 0,-0.73333 -0.75,-1.33387 -1.6667,-1.33452 -0.9166,-6.5e-4 -3.9377,-2.34225 -6.7133,-5.20357 -2.7757,-2.86132 -7.1751,-6.21235 -9.7764,-7.44674 -6.4713,-3.07089 -14.2863,-8.47949 -15.5765,-10.78042 -0.5864,-1.04578 -2.2364,-1.90142 -3.6667,-1.90142 -1.4303,0 -2.6004,-0.54577 -2.6004,-1.21284 0,-1.44576 -17.9221,-13.45382 -20.08,-13.45382 -0.8247,0 -3.0249,-1.2 -4.8895,-2.66667 -1.8646,-1.46667 -4.4738,-2.66667 -5.7982,-2.66667 -1.3246,0 -2.7851,-0.60978 -3.2458,-1.35508 -0.4605,-0.74529 -1.3336,-1.04848 -1.9398,-0.67374 -1.5198,0.9392 -6.6838,-1.91486 -11.4072,-6.30451 -2.1702,-2.01667 -5.0136,-3.66667 -6.3191,-3.66667 -1.3053,0 -4.7496,-1.5 -7.6537,-3.33333 -2.9042,-1.83333 -5.9111,-3.33333 -6.682,-3.33333 -0.771,0 -1.7471,-0.9 -2.1692,-2 -0.4222,-1.1 -1.7886,-2 -3.0367,-2 -1.248,0 -3.4337,-0.88092 -4.8573,-1.9576 -1.4235,-1.07667 -3.6331,-1.97667 -4.9102,-2 -1.2772,-0.0233 -3.0714,-1.2424 -3.9874,-2.70907 -1.0412,-1.66736 -3.1094,-2.66667 -5.5187,-2.66667 -2.3111,0 -6.5771,-1.95678 -10.6584,-4.88889 -3.7427,-2.68888 -7.7144,-4.87531 -8.8259,-4.85871 -1.1114,0.0167 -3.6136,-1.0834 -5.5601,-2.44444 -1.9465,-1.36104 -4.4829,-2.47462 -5.6365,-2.47462 -1.1536,0 -5.5611,-1.87967 -9.7943,-4.17704 -15.0247,-8.15395 -22.7204,-11.82296 -24.7989,-11.82296 -1.158,0 -3.4839,-0.55119 -5.1683,-1.22487 -3.3313,-1.33227 -8.0005,-3.09124 -9.0628,-3.41413 -11.3139,-3.439 -15.4303,-5.05652 -18.5848,-7.30267 -2.1048,-1.49875 -4.6321,-2.725 -5.6165,-2.725 -2.47,0 -22.7928,-6.75608 -24.6032,-8.17903 -0.8092,-0.636 -4.4376,-1.45165 -8.0634,-1.81256 -3.6257,-0.3609 -8.9637,-1.80009 -11.8621,-3.19817 -2.8985,-1.39809 -8.87,-2.97637 -13.27,-3.50729 -4.4,-0.53094 -8.7819,-1.59126 -9.7376,-2.35628 -1.676,-1.34158 -3.5544,-1.78728 -20.8657,-4.95116 -4.3652,-0.79779 -8.6204,-2.01794 -9.456,-2.71144 -0.8356,-0.69352 -1.8195,-0.96087 -2.1862,-0.59411 -0.3668,0.36675 -5.1116,-0.88201 -10.544,-2.77504 -5.4325,-1.89303 -12.9648,-3.87305 -16.7385,-4.40005 -3.7737,-0.52702 -7.6737,-1.60776 -8.6667,-2.40167 -1.5628,-1.24957 -10.9734,-3.37161 -17.1386,-3.86467 -1.1,-0.088 -3.8,-0.9392 -6,-1.89161 -10.1151,-4.37901 -12.5408,-5.08707 -20.6667,-6.03267 -4.7667,-0.55468 -10.9793,-0.91045 -13.806,-0.79058 -2.8265,0.11986 -10.7244,-0.99215 -17.5507,-2.47112 -6.8262,-1.47898 -16.6825,-3.086 -21.9028,-3.57116 -5.2202,-0.48518 -9.8092,-1.39643 -10.1976,-2.02499 -0.3885,-0.62857 -2.1137,-0.78964 -3.8337,-0.35792 -1.7201,0.43172 -4.4307,0.0875 -6.0233,-0.76487 -1.5927,-0.85238 -5.4787,-1.80273 -8.6356,-2.11188 -3.1568,-0.30913 -7.4188,-1.43321 -9.4711,-2.49796 -2.0523,-1.06474 -7.0723,-2.30521 -11.1553,-2.7566 -4.0831,-0.45138 -8.6239,-1.32614 -10.0906,-1.94393 -3.319,-1.398 -27.7913,-4.40373 -33.705,-4.13971 -2.4044,0.10734 -6.3044,-0.71502 -8.6667,-1.82748 -2.3621,-1.11246 -6.4145,-2.28828 -9.0053,-2.61292 -2.5907,-0.32464 -6.342,-0.99978 -8.3362,-1.5003 -1.9942,-0.50052 -7.0746,-1.07711 -11.2897,-1.28131 -4.215,-0.20419 -16.3637,-1.08156 -26.997,-1.94972 -10.6334,-0.86815 -21.8722,-1.50864 -24.9752,-1.42331 -3.1031,0.0853 -6.7724,-0.44982 -8.154,-1.18924 -1.3816,-0.73941 -6.6427,-1.66042 -11.6914,-2.04669 -5.0488,-0.38627 -12.7794,-1.36529 -17.1794,-2.1756 -4.4968,-0.82816 -13.6927,-1.1504 -21,-0.73591 -8.4075,0.4769 -13,0.25827 -13,-0.61885 0,-0.74593 -0.5418,-1.02145 -1.2039,-0.61225 -0.662,0.4092 -9.812,-0.21582 -20.3333,-1.38893 -20.5986,-2.29673 -62.2199,-2.58308 -77.1295,-0.53063 -4.7667,0.65617 -20.0667,1.56149 -34,2.01182 -19.3135,0.6242 -30.8552,1.77738 -48.5705,4.85286 -12.7806,2.21876 -24.4806,4.1727 -26,4.3421 -1.5196,0.1694 -3.9628,0.9402 -5.4295,1.7129 -2.7636,1.45596 -19.6861,3.8837 -29.7749,4.27158 -3.1762,0.12214 -7.0762,1.03256 -8.6667,2.02323 -1.5904,0.99067 -4.6917,2.20793 -6.8917,2.70505 -4.94,1.11626 -24.0686,8.31596 -28.8724,10.86722 -1.9466,1.03373 -4.3466,1.88321 -5.3334,1.88773 -0.9868,0.004 -3.3273,0.80828 -5.201,1.78613 -1.8739,0.97787 -6.3063,2.76584 -9.85,3.9733 -3.5436,1.20745 -8.4206,3.70368 -10.8375,5.5472 -2.4169,1.8435 -4.9388,3.35182 -5.604,3.35182 -0.6652,0 -6.2036,3.00159 -12.3076,6.6702 -6.104,3.6686 -11.3739,6.39456 -11.7107,6.05766 -0.3369,-0.3369 -2.4885,0.76801 -4.7813,2.45533 -2.2928,1.68732 -7.7688,4.48257 -12.1688,6.21168 -8.2592,3.24568 -20.8597,9.62843 -31.3333,15.8718 -3.3,1.96715 -8.8956,4.37764 -12.4348,5.35665 -3.9347,1.08847 -7.2319,2.99672 -8.4867,4.91168 -1.1285,1.72242 -2.9028,3.13167 -3.9429,3.13167 -4.1662,0 -39.4224,20.78112 -49.0423,28.90709 -2.882,2.43443 -6.032,4.42624 -7,4.42624 -0.968,0 -1.76,0.53788 -1.76,1.19528 0,0.65742 -2.9197,3.20742 -6.4883,5.66667 -12.672,8.73288 -25.1146,19.74349 -45.9244,40.63876 -25.7034,25.80909 -25.762,25.87151 -34.5205,36.87667 -15.0089,18.85864 -20.9776,27.06441 -32.0676,44.08649 -0.5504,0.84488 -1.6068,3.03613 -2.3475,4.86947 -0.7406,1.83333 -3.7289,6.93333 -6.6404,11.33333 -5.4153,8.18393 -8.4602,14.081 -12.7368,24.66667 -1.3332,3.3 -3.1384,6.60986 -4.0116,7.35526 -0.873,0.7454 -2.9024,4.6454 -4.5094,8.66667 -1.6071,4.02127 -3.784,9.01003 -4.8378,11.08612 -1.0536,2.07609 -1.9157,4.68352 -1.9157,5.79428 0,1.11076 -0.8269,3.61213 -1.8376,5.55861 -2.9937,5.76576 -6.8517,16.2294 -9.1707,24.87239 -0.787,2.93333 -1.8333,5.63333 -2.325,6 -0.9723,0.725 -2.2406,5.01233 -8.0859,27.33333 -2.1124,8.06667 -3.9635,16.46667 -4.1135,18.66667 -0.15,2.2 -0.745,4.63567 -1.3224,5.4126 -4.1381,5.56855 -2.9266,73.76541 1.5263,85.92073 0.6716,1.83334 2.1388,7.83334 3.2604,13.33334 3.068,15.04422 10.0435,35.0268 14.7168,42.15917 1.11,1.69419 2.0259,4.15145 2.0352,5.46059 0.013,1.30913 1.8881,5.98024 4.1755,10.38024 2.2872,4.4 5.8749,11.45 7.9728,15.66666 2.0978,4.21667 4.3489,7.66667 5.0024,7.66667 0.6533,0 1.5676,1.05 2.0316,2.33333 2.3294,6.44432 14.256,22.17668 31.4402,41.47347 15.7454,17.68091 25.7068,27.17156 49.3606,47.02737 38.0861,31.97094 38.6044,32.37072 72,55.53954 11.8508,8.22166 42.0921,24.57616 48.2326,26.08416 3.2132,0.7891 13.164,5.2822 41.9888,18.9592 5.2551,2.4935 12.7551,5.7613 16.6667,7.2617 3.9115,1.5005 8.3119,3.2116 9.7785,3.8026 1.4667,0.591 6.5667,2.4475 11.3334,4.1256 4.7666,1.6781 12.5666,4.5057 17.3333,6.2835 4.7667,1.7778 14.9132,5.3114 22.5477,7.8523 7.6346,2.5409 14.5346,5.1107 15.3334,5.7107 1.5721,1.1808 20.1613,7.2192 41.4522,13.4651 7.3334,2.1513 18.4334,5.4312 24.6667,7.2886 25.8992,7.7176 49.9159,12.055 100,18.06002 10.5635,1.2666 82.434,2.7905 117.3333,2.4879 85.75,-0.7434 98.9147,-0.4593 120.6667,2.6045 33.5328,4.7231 41.5833,5.381 58.5285,4.783 8.7241,-0.3079 16.2265,-0.7852 16.6721,-1.0606 z M 2248.6471,608.90789 c -17.9983,-1.80643 -36.9869,-6.5586 -57.3137,-14.3436 -6.6,-2.52773 -14.9406,-5.47689 -18.5347,-6.55368 -3.594,-1.07679 -11.9877,-4.60765 -18.6525,-7.84637 -6.665,-3.23871 -12.9296,-5.88856 -13.9218,-5.88856 -0.9921,0 -3.3293,-1.2 -5.1938,-2.66667 -1.8647,-1.46667 -4.4163,-2.66667 -5.6704,-2.66667 -1.2542,0 -3.3258,-1.15529 -4.6036,-2.5673 -1.2779,-1.41203 -5.5723,-4.15687 -9.5432,-6.09967 -10.2254,-5.00277 -28.5586,-19.91833 -32.8044,-26.68903 -1.9751,-3.14957 -4.1758,-6.08784 -4.8903,-6.52948 -2.2157,-1.36937 -11.676,-15.9388 -12.5516,-19.33008 -0.9825,-3.80584 0.9987,-8.11777 3.7297,-8.11777 1.0651,0 3.365,2.25 5.111,5 2.7576,4.34332 8.0982,9.72136 21.007,21.15433 1.7519,1.55156 4.2632,4.40156 5.5808,6.33334 1.3176,1.93178 3.5767,3.51233 5.0202,3.51233 2.9856,0 16.214,-7.14407 18.639,-10.06609 0.8828,-1.06366 2.1015,-1.93391 2.7083,-1.93391 0.6068,0 3.7061,-1.75663 6.8873,-3.90363 3.1812,-2.147 7.5614,-4.34602 9.7335,-4.88673 2.1723,-0.54072 5.7495,-1.98068 7.9495,-3.19993 2.2,-1.21926 6.1,-2.98655 8.6666,-3.92734 2.5667,-0.94077 9.4667,-3.49734 15.3334,-5.68126 22.3677,-8.32655 36.9794,-13.06778 40.273,-13.06778 1.8796,0 5.5872,-0.57105 8.239,-1.26901 13.7822,-3.62757 40.0793,-7.68333 56.2042,-8.66833 3.3274,-0.20324 7.2315,-0.74463 8.6759,-1.20307 1.4444,-0.45844 9.6521,-1.09161 18.2393,-1.40705 8.5871,-0.31546 16.1092,-0.88027 16.7159,-1.25516 1.1787,-0.72851 29.1148,2.0285 45.6526,4.50548 10.9682,1.64274 17.8032,3.24678 26.1146,6.12842 4.5954,1.5933 25.3854,5.66192 41.5521,8.13178 2.3833,0.36412 4.3333,1.17325 4.3333,1.79809 0,0.62484 2.55,1.77787 5.6667,2.56229 3.1167,0.78443 8.6667,2.70779 12.3333,4.27415 22.4418,9.5868 28.0419,12.89289 37.6759,22.24243 3.1133,3.02133 5.8701,5.49332 6.1264,5.49332 0.2563,0 3.1056,-3.35244 6.3319,-7.44986 8.064,-10.24161 28.1804,-23.23764 39.1564,-25.29674 3.0432,-0.57091 4.7336,-0.16416 6.0849,1.46409 1.6476,1.98511 1.4488,2.61795 -1.6627,5.29428 -1.9436,1.67181 -4.024,3.25309 -4.6233,3.51395 -0.5992,0.26085 -3.7361,4.07428 -6.9711,8.47428 -6.2017,8.43533 -12.3925,14.73537 -20.1184,20.47338 -2.5666,1.90626 -7.3012,5.72956 -10.521,8.49626 -3.2199,2.7667 -6.6307,5.03036 -7.5796,5.03036 -0.9488,0 -6.7331,3.75 -12.8539,8.33333 -11.3555,8.50321 -14.2963,10.42889 -22.2047,14.53967 -2.4709,1.28437 -5.4709,3.19346 -6.6666,4.24242 -3.7094,3.25391 -12.2764,6.90139 -26.8408,11.42762 -7.7,2.39294 -15.8,4.95406 -18,5.69137 -13.0991,4.39001 -68.303,13.09892 -83.0312,13.09892 -4.4796,0 -8.4448,0.48551 -8.8116,1.07891 -0.3667,0.5934 -3.9505,0.71745 -7.964,0.27569 -4.0136,-0.44177 -8.3989,-0.40805 -9.7453,0.0749 -3.4712,1.24524 -45.699,1.15088 -58.4675,-0.13066 z m 92.0196,-15.32151 c 11.7333,-1.98165 23.1333,-3.71074 25.3333,-3.84245 4.5827,-0.27435 16.0839,-2.63875 28.6667,-5.89329 4.7666,-1.2329 9.4166,-2.1583 10.3333,-2.05644 0.9167,0.10186 1.6667,-0.32096 1.6667,-0.93959 0,-0.61861 2.25,-1.53019 5,-2.02571 2.75,-0.4955 5.6729,-1.43225 6.4954,-2.08164 0.8226,-0.64937 5.6226,-2.58636 10.6667,-4.3044 9.8444,-3.35297 30.6288,-13.83798 37.1712,-18.75157 2.2,-1.65227 6.1,-4.01945 8.6667,-5.26041 2.5666,-1.24096 6.4294,-3.69603 8.584,-5.45571 l 3.9173,-3.19941 -3.2507,-2.69403 c -1.7878,-1.48171 -6.5506,-4.51444 -10.584,-6.7394 -4.0333,-2.22496 -8.8333,-4.88184 -10.6666,-5.90417 -1.8334,-1.02235 -7.5334,-3.21398 -12.6667,-4.8703 -5.1333,-1.65633 -9.9033,-3.52465 -10.6,-4.15184 -0.6967,-0.62718 -2.7967,-1.15044 -4.6667,-1.16277 -1.87,-0.012 -8.5,-2.15077 -14.7333,-4.75208 -14.8263,-6.18732 -22.4423,-8.26784 -33.9084,-9.26299 -5.1837,-0.44989 -13.9249,-1.68144 -19.4249,-2.73677 -20.8548,-4.0016 -106.7229,-3.07803 -125.8308,1.3534 -4.564,1.05845 -10.0692,1.88224 -12.2337,1.83063 -6.8184,-0.16259 -31.74,7.97425 -51.9355,16.95682 -4.4,1.95704 -9.8907,4.40016 -12.2015,5.42916 -2.3109,1.02902 -4.7416,1.87092 -5.4016,1.87092 -1.9414,0 -16.8565,10.16072 -19.3838,13.20511 -1.2762,1.53719 -3.0762,2.81248 -4,2.83397 -2.1082,0.0491 -10.3464,7.44775 -10.3464,9.29202 0,2.72965 29.8218,20.00224 34.5348,20.00224 1.5392,0 2.7985,0.6 2.7985,1.33333 0,0.73333 1.2,1.33333 2.6667,1.33333 1.4666,0 2.6666,0.6 2.6666,1.33334 0,0.73333 1.5,1.33333 3.3334,1.33333 1.8333,0 3.3333,0.6 3.3333,1.33333 0,0.73334 1.6105,1.33334 3.5791,1.33334 1.9684,0 6.0184,1.09456 9,2.43234 10.0496,4.50919 18.7112,7.23202 26.7542,8.41036 4.4,0.64462 8.9,1.54183 10,1.99379 5.4731,2.2488 26.9202,4.87995 46,5.64331 33.7502,1.35032 47.5794,0.73013 70.6667,-3.1691 z M 644.70088,305.00856 c -1.11882,-2.16359 -2.03424,-6.06359 -2.03424,-8.66667 0,-6.48472 -1.7284,-5.93889 -3.84,1.21265 -0.96553,3.27004 -2.56772,6.61962 -3.56044,7.4435 -2.11901,1.75862 -7.2715,0.4715 -7.25445,-1.81222 0.16351,-21.91062 -1.70993,-78.11326 -2.78615,-83.58354 l -1.45864,-7.41418 8.26886,-8.29454 c 7.55188,-7.57535 16.20216,-12.92463 22.26512,-13.7686 5.23806,-0.72915 19.95249,1.91614 23.85434,4.28844 11.18608,6.80102 14.65352,22.2325 6.9566,30.9596 -2.05478,2.32981 -3.74556,4.68757 -3.75728,5.23948 -0.0309,1.45541 -9.95613,10.20145 -16.0915,14.17969 -2.89472,1.87697 -5.26312,4.14104 -5.26312,5.03127 0,0.89022 3.82161,3.60617 8.49246,6.03541 12.69487,6.60245 24.36303,15.14477 35.30308,25.84561 11.16007,10.91603 12.05132,14.30436 3.94037,14.98024 -4.00849,0.33403 -5.30789,-0.20038 -7.08618,-2.9144 -1.19768,-1.82789 -7.98383,-6.68196 -15.08033,-10.78681 -7.09651,-4.10485 -16.48247,-10.05327 -20.8577,-13.21871 -4.37522,-3.16544 -8.87522,-5.51436 -10,-5.21982 -2.21381,0.5797 -3.1689,6.89286 -1.37168,9.06689 0.60752,0.73489 0.5435,6.35129 -0.14228,12.48091 -0.68577,6.1296 -1.16472,11.82832 -1.06433,12.66382 0.57384,4.77556 -0.32432,7.52076 -2.46675,7.53951 -1.99406,0.0175 -2.04253,0.20835 -0.33333,1.31292 1.71533,1.10853 1.67277,1.2954 -0.29909,1.31292 -1.26451,0.0107 -3.21451,-1.74979 -4.33334,-3.91337 z m -1.22346,-58.39955 c -0.19724,-29.15855 -0.21727,-29.28095 -4.66812,-28.53333 -0.65488,0.11 -1.6581,1.25 -2.22938,2.53333 -1.4525,3.26295 -1.73506,23 -0.32928,23 0.63435,0 1.07764,3.75 0.98508,8.33333 -0.44858,22.21367 -0.25005,23.66667 3.2338,23.66667 h 3.20404 z m 16.88821,-12.66667 c 4.442,-5.09277 12.03292,-20.31882 12.34739,-24.76664 0.12053,-1.70498 -0.74059,-4.19212 -1.9136,-5.52697 -2.69166,-3.06297 -12.62839,-4.68675 -14.46615,-2.36392 -2.66979,3.37447 -3.15369,36.99087 -0.53248,36.99087 0.43189,0 2.48607,-1.95 4.56484,-4.33334 z m 53.30101,-17.17806 c -2.41736,-2.44918 -2.04701,-5.7311 0.95313,-8.44619 3.25775,-2.94821 6.71354,-14.49171 6.71354,-22.42545 0,-4.98904 -0.4718,-6.09599 -2.86492,-6.7218 -4.67191,-1.22174 -10.22151,0.52941 -12.44835,3.92801 -2.51478,3.83805 -6.7855,4.15913 -7.72133,0.58052 -0.4722,-1.80568 1.23355,-4.67659 5.60139,-9.4276 5.15511,-5.60737 7.29339,-6.96717 11.93471,-7.58971 5.07578,-0.6808 6.11462,-0.31232 10.15211,3.60096 l 4.49772,4.35938 -0.4842,14.22928 c -0.26631,7.8261 -0.0705,14.89864 0.43509,15.71672 0.50562,0.81809 5.01631,1.7602 10.02379,2.09357 6.16009,0.41011 9.82184,1.33588 11.32259,2.8626 2.07101,2.10687 2.00937,2.42757 -0.92964,4.83712 -2.60995,2.13976 -5.25806,2.58065 -15.5,2.58065 -6.79376,0 -14.0773,0.33987 -16.18563,0.75527 -2.27591,0.44841 -4.51048,0.0692 -5.5,-0.93333 z M 2664.7619,158.8471 c -1.1524,-1.15237 -2.0952,-3.55237 -2.0952,-5.33333 0,-1.78095 -0.45,-3.23809 -1,-3.23809 -0.55,0 -1.0883,-1.35 -1.196,-3 -2.2444,-34.3509 -4.2504,-54.646436 -5.5275,-55.923516 -1.1857,-1.18569 -2.2763,-1.17954 -4.5829,0.0259 -1.6648,0.86998 -5.727,2.11715 -9.027,2.77148 -3.3,0.65434 -11.0012,2.18324 -17.1137,3.39755 -11.1083,2.206787 -11.1148,2.206427 -13.6667,-0.73577 -1.4041,-1.61899 -2.5529,-3.40895 -2.5529,-3.9777 0,-0.56874 -0.9857,-2.0198 -2.1905,-3.22456 -1.9356,-1.93572 -1.9606,-2.42039 -0.2135,-4.16739 2.7877,-2.78777 19.8748,-6.80755 35.9487,-8.45704 11.0244,-1.13131 14.2434,-1.96428 16.7722,-4.33993 2.6475,-2.48718 3.5343,-2.68698 5.7594,-1.29745 1.7718,1.10656 5.7774,1.40348 12.2768,0.91002 5.3058,-0.40283 15.8565,-0.97309 23.4461,-1.26724 7.5895,-0.29416 14.1395,-0.87521 14.5555,-1.29123 1.5714,-1.5714 5.6453,-0.67396 5.6453,1.2436 0,1.1 0.53,2 1.1779,2 1.8054,0 2.6241,4.68535 1.2481,7.14398 -2.7912,4.98772 -8.6849,6.36226 -29.4063,6.8582 -11.0452,0.26436 -20.443,1.0603 -20.8842,1.76876 -1.1639,1.86889 1.021,42.756176 3.0613,57.288286 1.6223,11.5547 1.5789,12.47869 -0.6408,13.66666 -3.5128,1.88003 -7.4205,1.55242 -9.7941,-0.82113 z m 877.0907,-17.5161 c -0.8142,-0.58043 -2.433,-2.9151 -3.5972,-5.18815 -1.967,-3.8409 -1.927,-4.76469 0.5671,-13.07803 2.6345,-8.78162 2.7613,-8.93769 6.9305,-8.53384 4.0091,0.38833 4.3252,0.82204 5.6447,7.7447 1.3767,7.22293 1.4731,7.33962 6.4015,7.75121 11.2818,0.9422 27.5353,-8.24085 27.533,-15.556 0,-7.09796 -4.6982,-16.130729 -11.9026,-22.894586 -3.8863,-3.64868 -7.5979,-6.63396 -8.2479,-6.63396 -0.6499,0 -1.1817,-0.6 -1.1817,-1.33333 0,-0.73333 -0.6274,-1.33333 -1.394,-1.33333 -0.7667,0 -2.8939,-1.5 -4.7272,-3.33334 -1.8334,-1.83333 -4.5874,-3.33333 -6.1199,-3.33333 -2.9135,0 -7.6388,-4.34009 -12.6715,-11.63827 -2.4613,-3.56943 -2.846,-5.50572 -2.2516,-11.33333 0.3943,-3.86562 1.3756,-8.8284 2.1808,-11.0284 1.4003,-3.82655 8.413,-11.1655 10.7775,-11.27915 0.6201,-0.0298 2.7201,-1.14953 4.6667,-2.48829 6.0873,-4.18658 17.0886,-5.93535 31.912,-5.0727 10.9605,0.63785 14.0745,1.28745 16.1577,3.37069 1.4193,1.41931 2.2305,2.93056 1.8028,3.35834 -0.4277,0.42778 -0.078,0.77778 0.7777,0.77778 0.8556,0 1.5556,1.15 1.5556,2.55555 0,1.40556 0.75,2.82842 1.6667,3.16191 1.2337,0.44886 1.2964,1.23497 0.2413,3.02657 -1.5616,2.65155 -15.0158,6.31039 -20.5746,5.59521 -3.1048,-0.39944 -2.9906,-0.58109 1.6666,-2.64934 6.6796,-2.96641 6.6184,-5.53106 -0.1053,-4.39517 -3.7836,0.63921 -5.55,0.32621 -6.8243,-1.20927 -3.6634,-4.4142 -23.9872,0.72905 -30.5701,7.73626 -2.4865,2.64685 -2.9096,4.13256 -2.1551,7.5682 0.8702,3.96139 2.7259,6.00257 14.4955,15.94341 7.3295,6.19062 24.8255,24.02984 24.8255,25.31249 0,0.70019 1.1897,3.39132 2.6438,5.980287 1.4542,2.588969 2.2807,4.707219 1.8368,4.707219 -0.444,0 -0.2417,0.75 0.4492,1.66667 0.6911,0.91666 2.009,4.06666 2.9287,7 2.2715,7.24499 0.6356,10.93019 -8.0849,18.21309 -12.95,10.81512 -13.4939,11.02028 -30.4403,11.48083 -8.4333,0.22918 -15.9996,-0.0581 -16.814,-0.6386 z M 2735.6667,96.835544 c -4.4799,-2.60924 -2.7772,-7.59571 5.105,-14.95157 9.8386,-9.18139 15.4266,-19.60829 10.5086,-19.60829 -3.214,0 -12.199,4.99638 -13.0708,7.26843 -0.6382,1.66285 -1.4012,1.7685 -4.0515,0.56093 -3.7879,-1.72586 -5.2627,-5.85289 -3.3612,-9.40582 0.7296,-1.36326 1.0329,-2.95368 0.6741,-3.53427 -0.9988,-1.61606 4.7784,-7.69836 8.5291,-8.9796 4.6557,-1.59041 14.6117,-0.6738 18.1969,1.67533 6.1466,4.02736 7.7147,15.98411 3.1592,24.08938 -1.74,3.09601 -2.8036,5.98928 -2.3633,6.42947 0.8728,0.87282 15.1095,-1.71676 18.3405,-3.33603 3.3618,-1.68481 13.4523,-0.5537 15.7742,1.76825 4.3868,4.38676 -1.432,8.13819 -17.7742,11.45922 -4.4,0.89416 -9.7396,2.16101 -11.8656,2.81522 -2.1261,0.65422 -6.3261,1.21582 -9.3333,1.24801 -3.0073,0.0322 -7.8677,0.92315 -10.8011,1.97992 -2.9333,1.05677 -5.3333,1.912187 -5.3333,1.900937 0,-0.0112 -1.05,-0.632037 -2.3333,-1.379517 z m 871.7847,-44.30224 c -0.7044,-3.52241 -0.072,-4.89812 4.3735,-9.52082 6.1407,-6.38473 8.2147,-10.10174 8.9516,-16.043 0.7575,-6.10763 -1.4941,-7.56826 -8.1099,-5.2608 -2.9333,1.0231 -6.3833,1.86921 -7.6666,1.88025 -3.2219,0.0277 -3.0396,-5.29722 0.3798,-11.09262 2.2506,-3.8143695 3.73,-4.7509595 8.6772,-5.4928297 4.8158,-0.72217 6.6983,-0.37156 9.7776,1.8210902 8.2815,5.8969495 12.3836,18.7452095 8.7566,27.4260695 -1.5696,3.75669 -1.63,4.86606 -0.2884,5.29659 0.9334,0.29953 11.1908,0.8296 22.7941,1.17795 11.6033,0.34834 21.3472,0.88346 21.6528,1.18914 0.3057,0.30569 0.926,2.40672 1.3784,4.66896 0.6632,3.3154 0.2753,4.40612 -1.9996,5.62362 -2.4069,1.28811 -26.0677,2.41072 -32.1285,1.52437 -1.1,-0.16087 -9.5882,-0.0198 -18.8626,0.31345 l -16.8625,0.60593 z"
       id="path1084" />
  </g>
</svg>
